<svg xmlns="http://www.w3.org/2000/svg" viewBox="0 0 555.4 335.8"><title>components</title><g id="Layer_2" data-name="Layer 2"><g id="Layer_1-2" data-name="Layer 1"><path d="M367.6,296.8a7.8,7.8,0,0,1-4.3-1.3l-209.7-151a4.7,4.7,0,0,1,0-7.8l17.2-12.3a7.1,7.1,0,0,1,4.3-1.4,6.9,6.9,0,0,1,4.3,1.4L389.1,275.3a4.7,4.7,0,0,1,0,7.8l-17.2,12.4A7.8,7.8,0,0,1,367.6,296.8Z" fill="#fff"/><path d="M175.1,125a5.8,5.8,0,0,1,3.2,1L387.9,276.9c1.8,1.3,1.8,3.3,0,4.5l-17.2,12.4a5.3,5.3,0,0,1-6.2,0L154.8,142.9a2.6,2.6,0,0,1,0-4.5L172,126a5.7,5.7,0,0,1,3.1-1m0-4a9.1,9.1,0,0,0-5.4,1.7l-17.2,12.4a6.9,6.9,0,0,0-3,5.5,6.6,6.6,0,0,0,3,5.5l209.6,151a9.4,9.4,0,0,0,5.5,1.7,9.7,9.7,0,0,0,5.5-1.7l17.2-12.4a7.1,7.1,0,0,0,2.9-5.5,6.8,6.8,0,0,0-2.9-5.5l-209.7-151a9.2,9.2,0,0,0-5.5-1.7Z" fill="#939598"/><path d="M335.5,334.8a5.9,5.9,0,0,1-3.7-1.2L90.8,160.1a3.9,3.9,0,0,1-1.7-3,4.1,4.1,0,0,1,1.7-3.1L210.5,67.8a6.8,6.8,0,0,1,3.8-1.1,6.7,6.7,0,0,1,3.7,1.1l56.3,40.6a3.6,3.6,0,0,1,0,6.1l-19.2,13.9L435.4,258.2a3.9,3.9,0,0,1,1.8,3.1,3.8,3.8,0,0,1-1.8,3l-96.2,69.3A5.9,5.9,0,0,1,335.5,334.8ZM175.1,119.4a4.1,4.1,0,0,0-2.5.8l-17.2,12.3a2,2,0,0,0-.9,1.5,1.7,1.7,0,0,0,.9,1.4L365,286.4a4.4,4.4,0,0,0,2.6.7,4.1,4.1,0,0,0,2.5-.7L387.3,274a1.8,1.8,0,0,0,.9-1.5,1.7,1.7,0,0,0-.9-1.4L177.7,120.2A4.5,4.5,0,0,0,175.1,119.4Z" fill="#fff"/><path d="M214.3,67.7a5.6,5.6,0,0,1,3.1.9l56.3,40.6a2.6,2.6,0,0,1,0,4.5l-20.3,14.7L434.9,259a2.6,2.6,0,0,1,0,4.5l-96.3,69.3a5.3,5.3,0,0,1-6.2,0L91.4,159.3a2.6,2.6,0,0,1,0-4.5l63.4-45.6,32.9-23.7,23.4-16.9a5.7,5.7,0,0,1,3.2-.9M367.6,288.1a5.4,5.4,0,0,0,3.1-.9l17.2-12.4a2.6,2.6,0,0,0,0-4.5l-209.6-151a5.7,5.7,0,0,0-3.2-.9,5.6,5.6,0,0,0-3.1.9l-17.2,12.4a2.6,2.6,0,0,0,0,4.5l209.7,151a5.4,5.4,0,0,0,3.1.9M214.3,65.7A7.5,7.5,0,0,0,210,67L186.5,83.9l-32.9,23.7L90.3,153.2a4.6,4.6,0,0,0,0,7.8L331.2,334.4a7.3,7.3,0,0,0,8.6,0L436,265.2a4.6,4.6,0,0,0,0-7.8l-179.2-129,18.1-13.1a4.8,4.8,0,0,0,2.1-3.8,5,5,0,0,0-2.1-3.9L218.5,67a7.2,7.2,0,0,0-4.2-1.3ZM367.6,286.1a3.9,3.9,0,0,1-2-.5L156,134.6c-.3-.2-.5-.4-.5-.6s.2-.4.5-.6L173.2,121a3.1,3.1,0,0,1,1.9-.6,3.2,3.2,0,0,1,2,.6L386.8,271.9a1.5,1.5,0,0,1,.4.6,1.3,1.3,0,0,1-.4.7l-17.3,12.4a3.6,3.6,0,0,1-1.9.5Z" fill="#504a84"/><polygon points="247.9 109.8 216.6 87.2 219.7 85 251 107.5 247.9 109.8" fill="#939598"/><polygon points="237.9 185.2 175.3 140.1 178.4 137.9 241 182.9 237.9 185.2" fill="#dcddde"/><path d="M327.3,311.1,271,270.5a2.6,2.6,0,0,1,0-4.5l17.2-12.4a6,6,0,0,1,6.3,0l56.3,40.6a2.6,2.6,0,0,1,0,4.5l-17.2,12.4A6,6,0,0,1,327.3,311.1Z" fill="#dcddde"/><polygon points="325 294.7 293.7 272.2 296.8 269.9 328.1 292.5 325 294.7" fill="#fff"/><polygon points="287.4 13.7 304.8 1.2 553.7 180.5 536.4 193 287.4 13.7" fill="#fff"/><path d="M304.8,2.5,552,180.5l-15.6,11.2L289.1,13.7,304.8,2.5m0-2.5-1.2.8L288,12.1l-2.3,1.6,2.3,1.7L535.2,193.3l1.2.9,1.1-.9,15.7-11.2,2.2-1.6-2.2-1.7L306,.8,304.8,0Z" fill="#504a84"/><polygon points="340.8 41.9 309.5 19.4 312.6 17.1 343.9 39.6 340.8 41.9" fill="#939598"/><polygon points="387.7 75.7 356.4 53.2 359.6 50.9 390.8 73.4 387.7 75.7" fill="#939598"/><polygon points="434.7 109.5 403.4 87 406.5 84.7 437.8 107.2 434.7 109.5" fill="#939598"/><polygon points="481.6 143.3 450.3 120.8 453.4 118.5 484.7 141 481.6 143.3" fill="#939598"/><polygon points="528.5 177.1 497.2 154.5 500.4 152.3 531.7 174.8 528.5 177.1" fill="#939598"/><polygon points="436.2 119.6 389.3 85.8 404.9 74.6 451.9 108.4 436.2 119.6" fill="#007bff"/><polygon points="434.7 109.5 403.4 87 406.5 84.7 437.8 107.2 434.7 109.5" fill="#fff"/><g opacity="0.2"><path d="M145.7,323.9,3.3,221.4a2.6,2.6,0,0,1,0-4.5l56.3-40.5a5.6,5.6,0,0,1,6.3,0L208.3,278.9a2.6,2.6,0,0,1,0,4.5l-56.4,40.5A5.4,5.4,0,0,1,145.7,323.9Z"/></g><path d="M148.8,281.6a6.5,6.5,0,0,1-3.7-1.1L2.7,178A3.8,3.8,0,0,1,1,174.9a3.6,3.6,0,0,1,1.7-3L59,131.3a6.8,6.8,0,0,1,3.8-1.1,6.7,6.7,0,0,1,3.7,1.1L208.8,233.8a3.6,3.6,0,0,1,0,6.2l-56.3,40.5A6.5,6.5,0,0,1,148.8,281.6Z" fill="#fff"/><path d="M62.8,131.2a5.6,5.6,0,0,1,3.1.9L208.3,234.6a2.6,2.6,0,0,1,0,4.5l-56.4,40.6a5.8,5.8,0,0,1-6.2,0L3.3,177.2a2.6,2.6,0,0,1,0-4.5l56.3-40.6a5.7,5.7,0,0,1,3.2-.9m0-2a7.5,7.5,0,0,0-4.3,1.3L2.1,171.1A4.7,4.7,0,0,0,0,174.9a5,5,0,0,0,2.1,3.9L144.5,281.3a7.8,7.8,0,0,0,8.6,0l56.3-40.5a4.6,4.6,0,0,0,0-7.8L67,130.5a7.2,7.2,0,0,0-4.2-1.3Z" fill="#504a84"/><path d="M145.7,268.4,89.4,227.9c-1.8-1.3-1.8-7.3,0-8.5l17.2-8.4a5.4,5.4,0,0,1,6.2,0l56.3,36.5c1.8,1.3,1.8,7.3,0,8.5l-17.2,12.4A5.4,5.4,0,0,1,145.7,268.4Z" fill="#be1727"/><path d="M145.7,264.4,89.4,223.9c-1.8-1.3-1.8-3.3,0-4.5L106.6,207a5.4,5.4,0,0,1,6.2,0l56.3,40.5c1.8,1.3,1.8,3.3,0,4.5l-17.2,12.4A5.4,5.4,0,0,1,145.7,264.4Z" fill="#dc3545"/><polygon points="143.3 248.1 112 225.6 115.2 223.3 146.5 245.8 143.3 248.1" fill="#fff"/><path d="M75.3,217.7,18.9,177.2c-1.7-1.3-1.7-7.3,0-8.5l17.3-8.4a5.4,5.4,0,0,1,6.2,0l56.3,36.5c1.8,1.3,1.8,7.3,0,8.5L81.5,217.7A5.4,5.4,0,0,1,75.3,217.7Z" fill="#005de1"/><path d="M75.3,213.7,18.9,173.2a2.6,2.6,0,0,1,0-4.5l17.3-12.4a5.4,5.4,0,0,1,6.2,0l56.3,40.5c1.8,1.3,1.8,3.3,0,4.5L81.5,213.7A5.4,5.4,0,0,1,75.3,213.7Z" fill="#007bff"/><polygon points="72.9 197.4 41.6 174.9 44.8 172.6 76.1 195.1 72.9 197.4" fill="#fff"/><polygon points="188.7 242 55.7 146.2 58.8 143.9 191.8 239.7 188.7 242" fill="#939598"/><polygon points="126.1 208.2 47.9 151.8 51 149.6 129.2 205.9 126.1 208.2" fill="#939598"/><g opacity="0.2"><polygon points="384.6 219.9 293.8 154.5 387.7 87 478.5 152.3 384.6 219.9"/></g><polygon points="292.1 143.5 387.7 74.7 480.2 141.2 384.6 210.1 292.1 143.5" fill="#fff"/><path d="M387.7,75.9l90.8,65.3-93.9,67.6-90.8-65.3,93.9-67.6m0-2.5-1.2.9-93.8,67.6-2.3,1.6,2.3,1.6,90.7,65.3,1.2.9,1.2-.9,93.8-67.5,2.3-1.7-2.3-1.6L388.9,74.3l-1.2-.9Z" fill="#504a84"/><polygon points="404.1 174.5 341.6 129.4 344.7 127.1 407.3 172.2 404.1 174.5" fill="#939598"/><polygon points="419.8 163.2 357.2 118.1 360.3 115.9 422.9 160.9 419.8 163.2" fill="#939598"/><polygon points="435.4 151.9 372.9 106.9 376 104.6 438.6 149.7 435.4 151.9" fill="#939598"/><polygon points="451.1 140.7 388.5 95.6 391.6 93.4 454.2 138.4 451.1 140.7" fill="#939598"/><polygon points="380.7 191.4 318.1 146.3 321.2 144 383.8 189.1 380.7 191.4" fill="#939598"/><polygon points="407.3 192.5 316.5 127.1 317.3 126.6 408.1 191.9 407.3 192.5" fill="#939598"/><polygon points="412 189.1 321.2 123.8 336.9 112.5 427.6 177.8 412 189.1" fill="#007bff"/><polygon points="404.1 174.5 341.6 129.4 344.7 127.1 407.3 172.2 404.1 174.5" fill="#fff"/><g opacity="0.2"><polygon points="454.2 302.7 363.5 237.3 433.1 187.2 523.8 252.6 454.2 302.7"/></g><polygon points="361.8 215.2 433.1 163.9 525.5 230.4 454.2 281.8 361.8 215.2" fill="#fff"/><path d="M433.1,165.1l90.7,65.3-69.6,50.2-90.7-65.4,69.6-50.1m0-2.5-1.2.9-69.6,50.1-2.3,1.6,2.3,1.6L453,282.2l1.2.8,1.2-.8L525,232l2.3-1.6-2.3-1.6-90.7-65.3-1.2-.9Z" fill="#504a84"/><polygon points="449.5 263.7 386.9 218.6 390.1 216.3 452.6 261.4 449.5 263.7" fill="#939598"/><polygon points="465.2 252.4 402.6 207.3 405.7 205.1 468.3 250.1 465.2 252.4" fill="#dcddde"/><polygon points="480.8 241.1 418.2 196.1 421.4 193.8 483.9 238.9 480.8 241.1" fill="#939598"/><polygon points="496.5 229.9 433.9 184.8 437 182.5 499.6 227.6 496.5 229.9" fill="#939598"/><polygon points="504.3 244.5 413.5 179.2 429.2 167.9 519.9 233.2 504.3 244.5" fill="#007bff"/><polygon points="496.5 229.9 433.9 184.8 437 182.5 499.6 227.6 496.5 229.9" fill="#fff"/></g></g></svg>