<svg xmlns="http://www.w3.org/2000/svg" viewBox="0 0 707.5 200"><defs><style>.cls-1{fill:#ff4276;}.cls-2{fill:#282b36;}</style></defs><title>logo</title><g id="Layer_2" data-name="Layer 2"><g id="Layer_3" data-name="Layer 3"><polygon class="cls-1" points="86.6 0 43.3 25 86.6 50 86.6 100 129.9 75 129.9 25 86.6 0"/><polygon class="cls-1" points="86.6 100 43.3 125 86.6 150 86.6 200 129.9 175 129.9 125 86.6 100"/><polygon class="cls-1" points="0 50 0 200 43.3 175 43.3 25 0 50"/><path class="cls-2" d="M207.5,41.14h44.41a49,49,0,0,1,16.51,2.57,32.34,32.34,0,0,1,12,7.28,30.49,30.49,0,0,1,7.28,11.38,42.44,42.44,0,0,1,2.47,14.87,42.31,42.31,0,0,1-1.49,11.34,33.94,33.94,0,0,1-4.53,9.89,33.53,33.53,0,0,1-7.74,8.07,40.52,40.52,0,0,1-11.14,5.78q3.54,6.81,7.55,13.81t8.07,14q4.06,7,8.07,14t7.56,13.71H273.73L246,115.49h-1.31c-1.8,0-3.68-.08-5.64-.23s-3.78-.33-5.46-.51q-3-.37-5.78-.84v53.91H207.5Zm20.34,57.71c.56.08,1.47.19,2.75.31a42.71,42.71,0,0,0,4.29.19h10.4q11.85,0,17.68-5.34t5.83-16.48q0-9.75-5.27-15t-15-5.2H227.84Z"/><path class="cls-2" d="M306.29,121.36q0-12.87,3.26-22.16a40.65,40.65,0,0,1,9.15-15.28,35.5,35.5,0,0,1,14-8.8,54.63,54.63,0,0,1,17.95-2.82,44.22,44.22,0,0,1,16.19,2.8A33.88,33.88,0,0,1,379,83a34.25,34.25,0,0,1,7.55,12.15,44.71,44.71,0,0,1,2.62,15.6,50.71,50.71,0,0,1-.28,5.43c-.19,1.66-.41,3.1-.66,4.3-.25,1.44-.53,2.73-.84,3.88H326.16A48.76,48.76,0,0,0,327.93,138a19.46,19.46,0,0,0,5,8.57,18.18,18.18,0,0,0,8.35,4.4,49.7,49.7,0,0,0,11.94,1.26,68.11,68.11,0,0,0,10.54-.74,58.26,58.26,0,0,0,7.93-1.74,42.84,42.84,0,0,0,6.72-2.58,50.81,50.81,0,0,1,2.19,6c.53,1.85.92,3.46,1.17,4.82.24,1.61.43,3,.56,4.27a39.24,39.24,0,0,1-7.47,2.8,90.4,90.4,0,0,1-9.14,1.91,78.16,78.16,0,0,1-12.5.89,74.73,74.73,0,0,1-19.91-2.42,35.38,35.38,0,0,1-14.74-7.9,34.58,34.58,0,0,1-9.14-14.39Q306.28,134.32,306.29,121.36Zm62.87-10.81v-2.69a25,25,0,0,0-1.44-8.81,18.71,18.71,0,0,0-4-6.44,16.71,16.71,0,0,0-6-4,20.51,20.51,0,0,0-7.46-1.34A37.43,37.43,0,0,0,340,88.62a18.43,18.43,0,0,0-7.51,4.11,17.13,17.13,0,0,0-4.53,7.23,33.43,33.43,0,0,0-1.49,10.59Z"/><path class="cls-2" d="M402.37,139.23a33.33,33.33,0,0,1,2.24-12.92,21.35,21.35,0,0,1,6.58-8.7,29.5,29.5,0,0,1,10.54-5.09A54.11,54.11,0,0,1,436,110.83h20.81V103.9a28,28,0,0,0-.89-7.7,10.1,10.1,0,0,0-2.94-4.85,11.87,11.87,0,0,0-5.45-2.55,41,41,0,0,0-8.45-.73,42.78,42.78,0,0,0-9.56,1,68,68,0,0,0-7.88,2.23,55.77,55.77,0,0,0-7.37,3.25A32.67,32.67,0,0,1,411,89.25a37.54,37.54,0,0,1-1.86-4.63A21.59,21.59,0,0,1,408,80.14a69.38,69.38,0,0,1,9.61-3.92,93.19,93.19,0,0,1,10.31-2.71,60.62,60.62,0,0,1,12.26-1.21,71.71,71.71,0,0,1,17.63,1.81,26.72,26.72,0,0,1,11.15,5.47,19.16,19.16,0,0,1,5.78,9.23A46.87,46.87,0,0,1,476.35,102v50.46l7.83,9.52v5.87H466.92l-7.18-8.3h-3.36c-.31.25-1.13.83-2.47,1.72a43.72,43.72,0,0,1-5.13,2.81,46.43,46.43,0,0,1-7.09,2.63,30.41,30.41,0,0,1-8.44,1.14,37,37,0,0,1-12.69-2.06,28.1,28.1,0,0,1-9.75-5.86,26.16,26.16,0,0,1-6.25-9.07A30,30,0,0,1,402.37,139.23Zm20.34-.7a19.11,19.11,0,0,0,1.21,7.32,11.17,11.17,0,0,0,3.41,4.64,12.69,12.69,0,0,0,5.31,2.39,33.05,33.05,0,0,0,6.95.67,24,24,0,0,0,6.67-.89,33.85,33.85,0,0,0,5.46-2,29,29,0,0,0,5-2.89V123.42H438a19,19,0,0,0-7.33,1.24,12.89,12.89,0,0,0-4.71,3.26,11.81,11.81,0,0,0-2.52,4.73A22.55,22.55,0,0,0,422.71,138.53Z"/><path class="cls-2" d="M503.68,41.14h21.17V96.65h1.87l39.83-55.51h25.38L544,103l50.56,64.83H568.6L526,109.33h-1.12v58.49H503.68Z"/><path class="cls-2" d="M618,56.82a12.64,12.64,0,0,1-4.89-.94,13.11,13.11,0,0,1-4-2.52,12.15,12.15,0,0,1-2.76-3.68,10.22,10.22,0,0,1-1-4.52,10.74,10.74,0,0,1,1-4.67,12.12,12.12,0,0,1,2.76-3.73,12.44,12.44,0,0,1,4-2.47A13.4,13.4,0,0,1,618,33.4a13.88,13.88,0,0,1,5,.89,12.57,12.57,0,0,1,4.06,2.47,12.25,12.25,0,0,1,2.75,3.73,10.74,10.74,0,0,1,1,4.67,10.22,10.22,0,0,1-1,4.52,12.28,12.28,0,0,1-2.75,3.68A13.24,13.24,0,0,1,623,55.88,13.09,13.09,0,0,1,618,56.82ZM607.32,72.39h19.4v79.86l5.5,3.91v11.66h-5.5q-9.24,0-14.32-3.73t-5.08-12.33Z"/><path class="cls-2" d="M659.74,86.85H647.52c-.06-.68-.12-1.43-.19-2.24s-.1-1.49-.13-2.42-.05-2-.05-3.08,0-2.16.09-3.12.16-2.16.28-3.6h12.22V55.24l10.73-14.1h8.3V72.39h26.4c.13.63.23,1.37.33,2.24a24.54,24.54,0,0,1,.14,2.52,17,17,0,0,1-.42,3.92,29.71,29.71,0,0,1-.89,3.08,15.73,15.73,0,0,1-1.3,2.7H678.77V139.6q0,6.65,2.29,9.64t7.32,3a22.17,22.17,0,0,0,4.52-.5,39.37,39.37,0,0,0,4.53-1.22c1.61-.54,3.26-1.15,4.94-1.81a24.19,24.19,0,0,1,2.94,4.72,23.61,23.61,0,0,1,1.54,4.16,19.61,19.61,0,0,1,.65,4,35,35,0,0,1-5.87,3.18,48.48,48.48,0,0,1-6.91,2.19,39.24,39.24,0,0,1-9.23,1,36.18,36.18,0,0,1-12.18-1.78,18.62,18.62,0,0,1-7.92-5.31,20.74,20.74,0,0,1-4.34-8.77A50.47,50.47,0,0,1,659.74,140Z"/></g></g></svg>