<svg xmlns="http://www.w3.org/2000/svg" xmlns:xlink="http://www.w3.org/1999/xlink" viewBox="0 0 874 874"><defs><linearGradient id="Default_gradient" x1="728.26" y1="728.26" x2="110.25" y2="110.25" gradientUnits="userSpaceOnUse"><stop offset="0" stop-color="#d060ff"/><stop offset="0.7" stop-color="#7b60ff"/><stop offset="1" stop-color="#7860ff"/></linearGradient></defs><title>logo-white-spaced-bg-color</title><g id="Layer_2" data-name="Layer 2"><g id="Camada_1" data-name="Camada 1"><rect width="874" height="874" fill="url(#Default_gradient)"/><path d="M373.4,449.2l33.7,46.5H387l-31.1-44.6h-3v44.6H336.5v-109h19.2c14.4,0,24.9,2.7,31.3,8.1s10.5,14,10.5,23.8a31.3,31.3,0,0,1-6.6,20A29.6,29.6,0,0,1,373.4,449.2Zm-20.5-12.5h5.2c15.6,0,23.4-5.9,23.4-17.8s-7.6-16.8-22.7-16.8h-5.9Z" fill="#fff"/><path d="M477.9,465H428.6c.4,5.7,2.3,10.2,5.5,13.5a16.9,16.9,0,0,0,12.5,5,16.1,16.1,0,0,0,9.8-2.9c2.6-1.8,5.5-5.3,8.7-10.4l13.4,7.5a49.6,49.6,0,0,1-6.5,9,35.9,35.9,0,0,1-7.4,6.3,29.4,29.4,0,0,1-8.6,3.5,38.9,38.9,0,0,1-9.9,1.2c-10.3,0-18.5-3.3-24.8-9.9s-9.3-15.5-9.3-26.4,3-19.7,9.1-26.4,14.1-10,24.1-10,18.1,3.2,24,9.7S478,450,478,461.3Zm-16.3-13c-2.2-8.4-7.6-12.7-16-12.7a16.3,16.3,0,0,0-5.5.9,16.1,16.1,0,0,0-4.6,2.6,15.4,15.4,0,0,0-3.6,4,17.3,17.3,0,0,0-2.2,5.2Z" fill="#fff"/><path d="M543.1,426.9H559v68.8H543.1v-7.2c-6.6,6.1-13.6,9.2-21.1,9.2a30.4,30.4,0,0,1-23.6-10.4c-6.2-7-9.3-15.7-9.3-26.2s3.1-18.9,9.3-25.8A29.6,29.6,0,0,1,521.5,425q12,0,21.6,9.9Zm-37.7,34.2c0,6.6,1.7,11.9,5.3,16.1a17.3,17.3,0,0,0,13.7,6.3,18.4,18.4,0,0,0,14.2-6.1c3.6-4.2,5.5-9.5,5.5-16a23.6,23.6,0,0,0-5.5-15.9,17.9,17.9,0,0,0-14.1-6.2,17.4,17.4,0,0,0-13.7,6.3C507.2,449.7,505.4,454.9,505.4,461.1Z" fill="#fff"/><path d="M592.1,376.4v72.8l22.4-22.3h21.3l-29.9,28.9L638,495.7H617.4l-22.8-29-2.5,2.5v26.5H576.2V376.4Z" fill="#fff"/><path d="M642.9,398.3a9.5,9.5,0,0,1,3.1-7.2,9.8,9.8,0,0,1,7.2-3,10.3,10.3,0,0,1,7.4,3,10.4,10.4,0,0,1,0,14.6,10.1,10.1,0,0,1-14.6,0A9.8,9.8,0,0,1,642.9,398.3Zm18.3,28.6v68.8H645.3V426.9Z" fill="#fff"/><path d="M694.8,441.7v54H678.9v-54h-6.7V426.9h6.7V401.7h15.9v25.2h12.4v14.8Z" fill="#fff"/><polygon points="166.8 435.9 226.7 495.7 286.5 495.7 227.1 435.9 166.8 435.9" fill="#fff"/><path d="M257.6,435.9h0a29.5,29.5,0,0,0,0-58.9H166.8l60.3,58.9Z" fill="#fff"/><rect x="166.8" y="376.3" width="120" height="120" fill="none"/></g></g></svg>