<svg id="Layer_1" data-name="Layer 1" xmlns="http://www.w3.org/2000/svg" viewBox="0 0 1753.54 363.53"><defs><style>.cls-1{fill:#30bf28;}.cls-2{fill:#ffb600;}.cls-3{fill:#ff7b00;}.cls-4{fill:#00a0e3;}.cls-5{fill:#a13298;}.cls-6{fill:#f31e32;}.cls-7{fill:#b3b3b3;}.cls-8{fill:#f2f2f2;}</style></defs><title>logo-horizontal-white</title><path class="cls-1" d="M132.84,40.37q-18.36,0-27,5T98.71,63.48l5.51,54.31a87.94,87.94,0,0,1,.36,9.18q0,24.21-14.86,36.51T47.34,179.81q29,4.41,43.3,16.15T105,232c0,1.71-.25,5-.73,9.91l-5.51,54.31q-1.47,12.84,7.34,18t26.79,5.14v40.36q-47,0-67.7-12.84t-20.74-43q0-3.66.74-11.74l5.5-52.84.37-4.77q0-16.87-13.4-24T0,203.3v-47q51,0,51-31.2l-.37-4.77-5.5-52.47q-.75-8.8-.74-12.48,0-30.09,20.92-42.75T132.84,0Z" transform="translate(0 0)"/><path class="cls-2" d="M172.84,40.37q-18.36,0-27,5t-7.16,18.16l5.51,54.31a87.94,87.94,0,0,1,.36,9.18q0,24.21-14.86,36.51T87.34,179.81q29,4.41,43.3,16.15T145,232c0,1.71-.25,5-.73,9.91l-5.51,54.31q-1.47,12.84,7.34,18t26.79,5.14v40.36q-47,0-67.7-12.84t-20.74-43q0-3.66.74-11.74l5.5-52.84.37-4.77q0-16.87-13.4-24T40,203.3v-47q51,0,51-31.2l-.37-4.77-5.5-52.47q-.75-8.8-.74-12.48,0-30.09,20.92-42.75T172.84,0Z" transform="translate(0 0)"/><path class="cls-3" d="M212.84,40.37q-18.36,0-27,5t-7.16,18.16l5.51,54.31a87.94,87.94,0,0,1,.36,9.18q0,24.21-14.86,36.51t-42.38,16.33q29,4.41,43.3,16.15t14.31,36c0,1.71-.25,5-.73,9.91l-5.51,54.31q-1.47,12.84,7.34,18t26.79,5.14v40.36q-47,0-67.7-12.84T124.4,303.84q0-3.66.74-11.74l5.5-52.84.37-4.77q0-16.87-13.4-24T80,203.3v-47q51,0,51-31.2l-.37-4.77-5.5-52.47q-.75-8.8-.74-12.48,0-30.09,20.92-42.75T212.84,0Z" transform="translate(0 0)"/><path class="cls-4" d="M280,0q46.61,0,67.52,12.66t20.92,42.75q0,3.68-.74,12.48l-5.5,52.47-.37,4.77q0,31.2,51,31.2v47q-24.22,0-37.61,7.15t-13.4,24l.37,4.77,5.5,52.84q.75,8.09.74,11.74,0,30.09-20.74,42.94T280,359.62V319.26q18,0,26.79-5.14t7.34-18l-5.51-54.31c-.48-4.89-.73-8.2-.73-9.91q0-24.22,14.31-36t43.3-16.15q-27.53-4-42.38-16.33T308.26,127a87.94,87.94,0,0,1,.36-9.18l5.51-54.31q1.47-13.2-7.16-18.16t-27-5Z" transform="translate(0 0)"/><path class="cls-5" d="M240,0q46.61,0,67.52,12.66t20.92,42.75q0,3.68-.74,12.48l-5.5,52.47-.37,4.77q0,31.2,51,31.2v47q-24.22,0-37.61,7.15t-13.4,24l.37,4.77,5.5,52.84q.75,8.09.74,11.74,0,30.09-20.74,42.94T240,359.62V319.26q18,0,26.79-5.14t7.34-18l-5.51-54.31c-.48-4.89-.73-8.2-.73-9.91q0-24.22,14.31-36t43.3-16.15q-27.53-4-42.38-16.33T268.26,127a87.94,87.94,0,0,1,.36-9.18l5.51-54.31q1.47-13.2-7.16-18.16t-27-5Z" transform="translate(0 0)"/><path class="cls-6" d="M200,0q46.6,0,67.52,12.66t20.92,42.75q0,3.68-.74,12.48l-5.5,52.47-.37,4.77q0,31.2,51,31.2v47q-24.22,0-37.61,7.15t-13.4,24l.37,4.77,5.5,52.84q.75,8.09.74,11.74,0,30.09-20.74,42.94T200,359.62V319.26q18,0,26.79-5.14t7.34-18l-5.51-54.31c-.48-4.89-.73-8.2-.73-9.91q0-24.22,14.31-36t43.3-16.15q-27.53-4-42.38-16.33T228.26,127a87.94,87.94,0,0,1,.36-9.18l5.51-54.31q1.47-13.2-7.16-18.16t-27-5Z" transform="translate(0 0)"/><path class="cls-7" d="M786.85,36.94,769.57,169.25H710V111.44q-26.24,4.17-46.49,28t-31.61,60.2v90.59h62.57V353.4H496V290.23h41.71V99.52H496V36.94H609.85l16.68,70.92Q643.81,67.35,670,47.37t64.36-20Q763,27.42,786.85,36.94Z" transform="translate(0 0)"/><path class="cls-7" d="M978.75,295q40.51,0,81-26.23l37.6,51.23q-23.25,20.26-55.43,31.88T971,363.53q-53.06,0-90-21.15a136.53,136.53,0,0,1-55.73-59q-18.76-37.85-18.77-87.91,0-47.67,18.18-86.12t53-60.79q34.86-22.35,83.14-22.35,45.28,0,78.67,19.37t51.55,56q18.17,36.66,18.18,87.31a277.9,277.9,0,0,1-1.79,34h-205Q911.4,295,978.75,295Zm-59-186.84q-15.51,18.78-18.48,57.51h116.22q-1.22-76.27-56.62-76.28Q935.23,89.39,919.75,108.16Z" transform="translate(0 0)"/><path class="cls-8" d="M1419.76,287.85q4.77,8.34,16.09,12.51l-19.66,62q-28.62-3-47.68-12.81a70.77,70.77,0,0,1-29.8-28.91q-17.88,20.88-45.3,31.89a155.29,155.29,0,0,1-58.4,11q-48.87,0-78.07-27.71T1127.73,264q0-51.25,40.53-79.57t113.83-28.3h42.31V144.81q0-48.86-62.57-48.87-16.1,0-40.23,4.47a331,331,0,0,0-46.78,12.22l-21.46-62.58a388.67,388.67,0,0,1,63.47-17.58q33.08-6.25,59.9-6.26,138.26,0,138.26,112v124Q1415,279.52,1419.76,287.85Zm-120.09-.9a60.63,60.63,0,0,0,24.73-25.33V209.77h-23.24q-76.29,0-76.28,47.68,0,18.48,11,28.61t31.29,10.13q16.13,0,32.5-9.19Z" transform="translate(0 0)"/><path class="cls-8" d="M1641.76,288.74q14-7.44,14-22.35,0-10.72-5.66-17.28t-21.16-12.82q-15.51-6.25-48.27-15.19Q1533,208.58,1508,186.23t-25-61.68q0-43.5,36-70.92t101-27.42q75.09,0,128.14,38.74l-37.55,55.43Q1667.07,93.56,1623,93.56q-23.24,0-34.27,6t-11,18.47a19,19,0,0,0,5.66,14q5.65,5.67,21.46,11.62t47.37,14.9q34,9.54,55.73,20.86t33.67,30.39q11.91,19.08,11.92,48.87,0,33.39-20.26,57.22T1679,351.61q-34,11.92-75.09,11.92-44.12,0-79.86-12.51t-60.79-35.16l47.08-53.05q42.92,33.39,93,33.38Q1627.75,296.19,1641.76,288.74Z" transform="translate(0 0)"/></svg>