<svg xmlns="http://www.w3.org/2000/svg" viewBox="0 0 840.84 200"><defs><style>.cls-1{fill:#fff;}.cls-2{fill:#ff5e99;}.cls-2,.cls-3,.cls-4{stroke:#282b36;stroke-linejoin:bevel;stroke-width:3px;}.cls-3{fill:#ff4276;}.cls-4{fill:#ff86cf;}.cls-5{fill:#282b36;opacity:0.3;}.cls-6{fill:none;}</style></defs><title>logo-light</title><g id="Layer_2" data-name="Layer 2"><g id="Layer_3" data-name="Layer 3"><path class="cls-1" d="M264.61,30.33c10-1.83,24.66-3.11,40-3.11,20.68,0,34.79,3.49,44.5,11.63,7.95,6.61,12.44,16.61,12.44,29,0,18.59-12.63,31.26-26.25,36.05v.62c10.46,4,16.55,13.9,20.13,27.92,4.59,18.06,8.52,34.61,11.4,40.22H339.73c-2.24-4.17-5.69-16.09-9.73-34-4.13-18.81-11-24.91-26-25.26H290.77v59.3H264.61ZM290.77,94h15.59c17.88,0,28.89-9.42,28.89-23.76,0-15.7-11.06-23.08-28.1-23.14-8.36,0-13.69.65-16.38,1.34Z"/><path class="cls-1" d="M404.62,127.82c.7,18.89,15.32,27.15,32.19,27.15,12.12,0,20.8-1.9,28.77-4.83l3.9,18.14c-8.93,3.78-21.3,6.61-36.43,6.61-33.84,0-53.66-20.9-53.66-52.84,0-28.77,17.45-56,51-56,33.88,0,44.91,27.86,44.91,50.69a54.61,54.61,0,0,1-.93,11.07Zm45.84-18.37c.11-9.65-4.08-25.4-21.74-25.4-16.22,0-23,14.74-24.14,25.4Z"/><path class="cls-1" d="M555.13,172.64,553.32,161h-.63c-6.32,8.23-17.23,14-30.72,14-21.14,0-32.86-15.11-32.86-31,0-26.3,23.44-39.62,61.83-39.46v-1.73c0-6.85-2.72-18.24-21.17-18.17-10.21,0-20.91,3.29-28,7.78l-5.22-17.11c7.87-4.78,21.37-9.25,37.78-9.25,33.43,0,43,21.08,43,44v37.53c0,9.47.47,18.67,1.62,25.1Zm-3.49-51c-18.6-.25-36.39,3.67-36.39,19.54,0,10.21,6.7,15,15,15a21.45,21.45,0,0,0,20.62-14.43,19.79,19.79,0,0,0,.74-5.73Z"/><path class="cls-1" d="M606.07,28.34h26.16V94.73h.6c3.44-5.52,7.14-10.66,10.57-15.55l37.81-50.84h32.44L663.91,89.72l53,82.92H686.07L645.2,106.58l-13,15.42v50.64H606.07Z"/><path class="cls-1" d="M758.74,39.25c0,7.87-5.69,14.21-15,14.21-8.73,0-14.47-6.34-14.44-14.21,0-8,5.91-14.25,14.76-14.25S758.64,31.15,758.74,39.25ZM730.82,172.64V68.42h26.37V172.64Z"/><path class="cls-1" d="M815.77,38.57V68.42h25.07V88.05H815.77v46c0,12.75,3.39,19.23,13.48,19.23a40.11,40.11,0,0,0,10.23-1.14l.53,20.05c-4,1.48-10.87,2.7-19.18,2.7-9.68,0-17.75-3.3-22.65-8.59-5.66-6-8.24-15.57-8.24-29.23v-49H775.07V68.42h14.87V44.81Z"/><polygon class="cls-2" points="16 172.4 58.29 196.81 58.29 147.99 16 123.57 16 172.4"/><polygon class="cls-3" points="58.29 147.99 100.57 123.57 100.57 172.4 58.29 196.81 58.29 147.99"/><polygon class="cls-4" points="58.14 99.46 100.23 123.72 58.18 148.05 16.08 123.79 58.14 99.46"/><polygon class="cls-2" points="99.43 172.4 141.71 196.81 141.71 147.99 99.43 123.57 99.43 172.4"/><polygon class="cls-3" points="141.71 147.99 184 123.57 184 172.4 141.71 196.81 141.71 147.99"/><polygon class="cls-4" points="142.51 99.46 184.61 123.72 142.55 148.05 100.45 123.79 142.51 99.46"/><polygon class="cls-2" points="16 123.83 58.29 148.25 58.29 99.42 16 75.01 16 123.83"/><polygon class="cls-3" points="58.29 99.42 100.57 75.01 100.57 123.83 58.29 148.25 58.29 99.42"/><polygon class="cls-4" points="58.14 50.89 100.23 75.15 58.18 99.48 16.08 75.22 58.14 50.89"/><polygon class="cls-2" points="16 75.27 58.29 99.68 58.29 50.85 16 26.44 16 75.27"/><polygon class="cls-4" points="58.29 50.85 100.57 26.44 100.57 75.27 58.29 99.68 58.29 50.85"/><polygon class="cls-4" points="58.14 2.33 100.23 26.59 58.18 50.91 16.08 26.66 58.14 2.33"/><polygon class="cls-4" points="99.43 75.25 141.71 99.66 141.71 50.83 99.43 26.42 99.43 75.25"/><polygon class="cls-3" points="141.71 50.83 184 26.42 184 75.25 141.71 99.66 141.71 50.83"/><polygon class="cls-4" points="142.29 2.31 184.39 26.56 142.33 50.89 100.23 26.64 142.29 2.31"/><polygon class="cls-2" points="58.29 99.58 100.57 124 100.57 75.17 58.29 50.76 58.29 99.58"/><polygon class="cls-3" points="99.43 75.17 141.71 50.76 141.71 99.58 99.43 124 99.43 75.17"/><polygon class="cls-4" points="100 26.64 142.1 50.9 100.04 75.23 57.94 50.97 100 26.64"/><polygon class="cls-5" points="58.14 99.46 99.67 124.1 142.51 99.46 163.37 111.43 121.3 136.33 100.16 172.95 58.14 99.46"/><rect class="cls-6" width="200" height="200"/></g></g></svg>