<svg xmlns="http://www.w3.org/2000/svg" viewBox="0 0 707.5 199.93"><defs><style>.cls-1{fill:#fff;}.cls-2{fill:#ff86cf;}.cls-3{fill:#ff4276;}</style></defs><title>logo-light</title><g id="Layer_2" data-name="Layer 2"><g id="Layer_3" data-name="Layer 3"><path class="cls-1" d="M207.5,41.14h44.41a49,49,0,0,1,16.51,2.56,32.34,32.34,0,0,1,12,7.28,30.49,30.49,0,0,1,7.28,11.38,42.54,42.54,0,0,1,2.47,14.88,42.24,42.24,0,0,1-1.49,11.33,33.94,33.94,0,0,1-4.53,9.89,33.17,33.17,0,0,1-7.74,8.07,40.52,40.52,0,0,1-11.14,5.78q3.54,6.81,7.55,13.81t8.07,14q4.06,7,8.07,14t7.56,13.72H273.73L246,115.48h-1.31c-1.8,0-3.68-.07-5.64-.23s-3.78-.33-5.46-.51q-3-.37-5.78-.84v53.92H207.5Zm20.34,57.7c.56.08,1.47.19,2.75.32s2.71.19,4.29.19h10.4q11.85,0,17.68-5.34t5.83-16.49q0-9.75-5.27-14.95t-15-5.2H227.84Z"/><path class="cls-1" d="M306.29,121.35q0-12.87,3.26-22.16a40.73,40.73,0,0,1,9.15-15.28,35.61,35.61,0,0,1,14-8.8,54.63,54.63,0,0,1,17.95-2.82,44.22,44.22,0,0,1,16.19,2.8A33.88,33.88,0,0,1,379,83a34.25,34.25,0,0,1,7.55,12.15,44.71,44.71,0,0,1,2.62,15.6,50.71,50.71,0,0,1-.28,5.43c-.19,1.67-.41,3.1-.66,4.31-.25,1.43-.53,2.73-.84,3.88H326.16A48.73,48.73,0,0,0,327.93,138a19.46,19.46,0,0,0,5,8.57,18.2,18.2,0,0,0,8.35,4.41,50.25,50.25,0,0,0,11.94,1.25,68.11,68.11,0,0,0,10.54-.74,58.26,58.26,0,0,0,7.93-1.74,42.85,42.85,0,0,0,6.72-2.57,50.08,50.08,0,0,1,2.19,6c.53,1.86.92,3.46,1.17,4.82.24,1.61.43,3,.56,4.27a39.24,39.24,0,0,1-7.47,2.8,87.72,87.72,0,0,1-9.14,1.91,78.16,78.16,0,0,1-12.5.89,74.75,74.75,0,0,1-19.91-2.41,35.51,35.51,0,0,1-14.74-7.91,34.58,34.58,0,0,1-9.14-14.39Q306.28,134.31,306.29,121.35Zm62.87-10.81v-2.69A25,25,0,0,0,367.72,99a18.57,18.57,0,0,0-4-6.43,16.45,16.45,0,0,0-6-4,20.3,20.3,0,0,0-7.46-1.35A37,37,0,0,0,340,88.62a18.53,18.53,0,0,0-7.51,4.1,17.13,17.13,0,0,0-4.53,7.23,33.43,33.43,0,0,0-1.49,10.59Z"/><path class="cls-1" d="M402.37,139.23a33.3,33.3,0,0,1,2.24-12.92,21.32,21.32,0,0,1,6.58-8.71,29.66,29.66,0,0,1,10.54-5.09A54.11,54.11,0,0,1,436,110.82h20.81V103.9a28.05,28.05,0,0,0-.89-7.71,10,10,0,0,0-2.94-4.84,11.88,11.88,0,0,0-5.45-2.56,41,41,0,0,0-8.45-.73,42.78,42.78,0,0,0-9.56,1,68,68,0,0,0-7.88,2.23,55.77,55.77,0,0,0-7.37,3.26A33.16,33.16,0,0,1,411,89.24a38.1,38.1,0,0,1-1.86-4.62A21.67,21.67,0,0,1,408,80.13a70.64,70.64,0,0,1,9.61-3.92,91.14,91.14,0,0,1,10.31-2.7,59.9,59.9,0,0,1,12.26-1.22,72.2,72.2,0,0,1,17.63,1.81,26.72,26.72,0,0,1,11.15,5.47,19.21,19.21,0,0,1,5.78,9.23A46.92,46.92,0,0,1,476.35,102v50.46l7.83,9.52v5.88H466.92l-7.18-8.31h-3.36c-.31.26-1.13.83-2.47,1.72a42.2,42.2,0,0,1-5.13,2.82,46.45,46.45,0,0,1-7.09,2.62,30,30,0,0,1-8.44,1.15,37,37,0,0,1-12.69-2.07,27.94,27.94,0,0,1-9.75-5.86,26.16,26.16,0,0,1-6.25-9.07A29.91,29.91,0,0,1,402.37,139.23Zm20.34-.7a19.09,19.09,0,0,0,1.21,7.31,11.1,11.1,0,0,0,3.41,4.64,12.69,12.69,0,0,0,5.31,2.39,33.05,33.05,0,0,0,6.95.67,24.33,24.33,0,0,0,6.67-.88,33.81,33.81,0,0,0,5.46-2,29,29,0,0,0,5-2.89V123.41H438a18.84,18.84,0,0,0-7.33,1.25,12.87,12.87,0,0,0-4.71,3.25,11.81,11.81,0,0,0-2.52,4.73A22.57,22.57,0,0,0,422.71,138.53Z"/><path class="cls-1" d="M503.68,41.14h21.17v55.5h1.87l39.83-55.5h25.38L544,103l50.56,64.84H568.6L526,109.33h-1.12v58.49H503.68Z"/><path class="cls-1" d="M618,56.81a12.82,12.82,0,0,1-4.89-.93,13.51,13.51,0,0,1-4-2.52,12.31,12.31,0,0,1-2.76-3.69,10.19,10.19,0,0,1-1-4.52,10.74,10.74,0,0,1,1-4.67,12.12,12.12,0,0,1,2.76-3.73,12.62,12.62,0,0,1,4-2.47,13.4,13.4,0,0,1,4.89-.89,13.88,13.88,0,0,1,5,.89,12.75,12.75,0,0,1,4.06,2.47,12.25,12.25,0,0,1,2.75,3.73,10.74,10.74,0,0,1,1,4.67,10.19,10.19,0,0,1-1,4.52,12.45,12.45,0,0,1-2.75,3.69A13.63,13.63,0,0,1,623,55.88,13.28,13.28,0,0,1,618,56.81ZM607.32,72.39h19.4v79.85l5.5,3.92v11.66h-5.5q-9.24,0-14.32-3.74t-5.08-12.33Z"/><path class="cls-1" d="M659.74,86.85H647.52c-.06-.69-.12-1.43-.19-2.24s-.1-1.5-.13-2.43-.05-2-.05-3.08,0-2.16.09-3.12.16-2.16.28-3.59h12.22V55.24l10.73-14.1h8.3V72.39h26.4c.13.62.23,1.36.33,2.24a24.51,24.51,0,0,1,.14,2.51,17,17,0,0,1-.42,3.92,29.71,29.71,0,0,1-.89,3.08,15.84,15.84,0,0,1-1.3,2.71H678.77V139.6c0,4.42.76,7.64,2.29,9.64s4,3,7.32,3a22.17,22.17,0,0,0,4.52-.5,39.37,39.37,0,0,0,4.53-1.22q2.42-.81,4.94-1.81a24.49,24.49,0,0,1,2.94,4.72,23.61,23.61,0,0,1,1.54,4.16,19.59,19.59,0,0,1,.65,4,35,35,0,0,1-5.87,3.17,46.05,46.05,0,0,1-6.91,2.19,39.24,39.24,0,0,1-9.23,1,35.93,35.93,0,0,1-12.18-1.78,18.69,18.69,0,0,1-7.92-5.3,20.84,20.84,0,0,1-4.34-8.78,50.47,50.47,0,0,1-1.31-12.11Z"/><polygon class="cls-2" points="86.68 99.98 130.14 125.02 86.73 150.14 43.27 125.1 86.68 99.98"/><polygon class="cls-3" points="86.71 50.02 129.97 25.04 129.97 75 86.71 99.98 86.71 50.02"/><polygon class="cls-2" points="86.68 0 130.14 25.04 86.73 50.16 43.27 25.12 86.68 0"/><polygon class="cls-3" points="0 50.12 43.27 25.14 43.27 174.95 0 199.93 0 50.12"/><polygon class="cls-3" points="86.88 149.97 130.14 124.99 130.14 174.95 86.88 199.93 86.88 149.97"/></g></g></svg>