<svg id="Layer_1" data-name="Layer 1" xmlns="http://www.w3.org/2000/svg" viewBox="0 0 349.56 114.79"><defs><style>.cls-1{fill:#333;}.cls-2{fill:#d4145a;}</style></defs><title>logo</title><path class="cls-1" d="M159.43,2.7l-12.87,28-8.49,10.45V18.3h-.2q-24.77,0-35.15,35.35V97.53H125V112.3H65.91V97.53H82.76V17.47H65.91V2.7h32l3.53,25.58q6.45-14.13,15.7-21.11t23.4-7A77.81,77.81,0,0,1,159.43,2.7Z"/><path class="cls-1" d="M214.29,64.26H147.43q.82,17.26,9.46,25.89t21.73,8.63a44.72,44.72,0,0,0,14.77-2.39A64.53,64.53,0,0,0,207.74,89l8.94,12.68a57,57,0,0,1-17.88,9.67,64.74,64.74,0,0,1-20.8,3.43q-24.33,0-37.85-15.59T126.63,57.6q0-16.64,5.93-29.63A48.13,48.13,0,0,1,149.61,7.49Q160.74,0,175.5,0,196.73,0,209,14.56t12.27,39.72c0,.65-.05,2.33-.12,4.16Zm-58.23-40q-7.59,8.63-8.63,25.47h54.48q-.19-16.43-7.17-25.26t-19-8.84Q163.65,15.6,156.06,24.23Z"/><path class="cls-2" d="M303.08,99l-18.5,7.12c-10.95-1.39-15.65-2.85-23.4-6.74a37.59,37.59,0,0,1-14.76,11.44,48.46,48.46,0,0,1-19.76,4q-16.64,0-26.2-9.25T190.89,80.9q0-17.06,13.41-26.31t38.37-9.26h15.81V37.22q0-11-6.45-16t-18.72-5q-12.88,0-28.9,5.62l-5.2-14.56q20-7.27,37-7.28Q257,0,267.73,9.46T278.44,36V87.13C278.44,91.43,284.58,99,303.08,99Zm-56.14-2.94a33.12,33.12,0,0,0,11.54-11V58.44H243.92q-16.63,0-24.23,5.61T212.1,80.48q0,9.57,5,14.56t15,5A29.75,29.75,0,0,0,246.94,96.08Z"/><path class="cls-2" d="M321.28,94.62q6.86-4.37,6.86-11.85a17.24,17.24,0,0,0-1.87-8.53q-1.87-3.33-7.49-6t-17-5.61Q283,57.82,274,51t-9.05-20.17q0-13.94,11.65-22.36T307.35,0q23.91,0,40.76,12.48l-8.74,13.1A63.38,63.38,0,0,0,325,18.4a51.93,51.93,0,0,0-17-2.6q-22.46,0-22.46,13.31A11.06,11.06,0,0,0,288,36.6q2.49,2.91,8.42,5.41A145.5,145.5,0,0,0,314,47.62q17.88,4.79,26.72,12.17t8.84,21.73q0,16.64-13.62,25t-33.58,8.31q-26.42,0-43.68-15L269.5,87.13a50.05,50.05,0,0,0,15.07,8.74A50.84,50.84,0,0,0,302.36,99Q314.4,99,321.28,94.62Z"/><path class="cls-1" d="M184.56,17a22.25,22.25,0,0,1,10.18,7.41,28.85,28.85,0,0,1,4,7.18c5.89-.87,12.07-2.06,18.16-3.39a47.36,47.36,0,0,0-8-13.67A39.59,39.59,0,0,0,184.42.72C185,6,184,11.65,184.56,17Z"/><path class="cls-2" d="M65.59,29,19.35,56,65.59,82.51,55.35,98.58,0,64.15V48.07L55.63,13.5Z"/></svg>