<svg width="170" height="48" viewBox="0 0 170 48" fill="none" xmlns="http://www.w3.org/2000/svg">
<path d="M56 32.8833C56 28.6107 59.4112 26.2951 67.4655 25.4522C67.344 23.679 66.4556 22.5316 64.2471 22.5316C62.5374 22.5316 60.8318 23.2492 58.858 24.3632L56.7124 20.4203C59.298 18.8473 62.2105 17.75 65.4121 17.75C70.6169 17.75 73.5 20.7124 73.5 26.9293V38.5202H68.576L68.157 36.434H68.0061C66.2921 37.9319 64.3687 39 62.0806 39C58.3551 38.9958 56 36.2963 56 32.8833ZM67.4655 32.6121V29.0739C63.1743 29.6497 61.7747 30.8722 61.7747 32.4118C61.7747 33.7178 62.6798 34.3561 64.113 34.3561C65.4792 34.3478 66.3969 33.6885 67.4655 32.6121V32.6121Z" fill="white"/>
<path d="M77.6035 18.2491H82.5383L82.9582 21.7925H83.1094C84.5961 19.0838 86.8262 17.7566 88.9093 17.7566C89.7408 17.7166 90.5711 17.8591 91.3409 18.1739L90.3372 23.3618C89.6204 23.1549 88.8787 23.0454 88.1323 23.0362C86.5952 23.0362 84.7263 24.0212 83.6386 26.7925V38.5455H77.5909L77.6035 18.2491Z" fill="white"/>
<path d="M92.5909 12.1423C92.5909 10.2978 94.0472 9 96.0568 9C98.0664 9 99.5227 10.2978 99.5227 12.1423C99.5227 13.9868 98.0664 15.2805 96.0568 15.2805C94.0472 15.2805 92.5909 13.9701 92.5909 12.1423ZM93.0527 18.2684H99.0442V38.5455H93.0527V18.2684Z" fill="white"/>
<path d="M102.591 32.8833C102.591 28.6107 105.983 26.2951 113.983 25.4522C113.863 23.679 112.98 22.5316 110.782 22.5316C109.088 22.5316 107.394 23.2492 105.434 24.3632L103.303 20.4203C105.867 18.8473 108.76 17.75 111.94 17.75C117.114 17.75 119.977 20.7124 119.977 26.9293V38.5202H115.086L114.67 36.434H114.52C112.818 37.9319 110.912 39 108.639 39C104.934 38.9958 102.591 36.2963 102.591 32.8833ZM113.983 32.6121V29.0739C109.721 29.6497 108.331 30.8722 108.331 32.4118C108.331 33.7178 109.226 34.3561 110.649 34.3561C112.006 34.3478 112.918 33.6885 113.983 32.6121V32.6121Z" fill="white"/>
<path d="M123.841 9.79547H129.718V26.2534H129.869L136.306 18.2023H142.839L135.738 26.5757L143.386 38.5329H136.87L132.296 30.5908L129.718 33.5214V38.5455H123.841V9.79547Z" fill="white"/>
<path d="M144.977 12.1423C144.977 10.2978 146.41 9 148.386 9C150.363 9 151.796 10.2978 151.796 12.1423C151.796 13.9868 150.363 15.2805 148.386 15.2805C146.41 15.2805 144.977 13.9701 144.977 12.1423ZM145.432 18.2684H151.325V38.5455H145.432V18.2684Z" fill="white"/>
<path d="M156.594 31.1449V22.969H153.841V18.4893L156.93 18.2809L157.628 12.8636H162.573V18.2809H167.41V22.9898H162.573V31.0741C162.573 33.3702 163.611 34.2911 165.185 34.2911C165.841 34.2697 166.489 34.1402 167.103 33.9077L168.045 38.2832C166.603 38.7612 165.093 39.0032 163.574 39C158.591 39 156.594 35.8371 156.594 31.1449Z" fill="white"/>
<circle cx="29" cy="24" r="5" fill="#29A9FF"/>
<path fill-rule="evenodd" clip-rule="evenodd" d="M12 4C7.58172 4 4 7.58172 4 12V36C4 40.4183 7.58172 44 12 44H36C40.4183 44 44 40.4183 44 36V12C44 7.58172 40.4183 4 36 4H12ZM23.9997 35.9997C30.6271 35.9997 35.9997 30.6271 35.9997 23.9997C35.9997 17.3723 30.6271 11.9997 23.9997 11.9997C17.3723 11.9997 11.9997 17.3723 11.9997 23.9997C11.9997 30.6271 17.3723 35.9997 23.9997 35.9997Z" fill="#29A9FF"/>
<path fill-rule="evenodd" clip-rule="evenodd" d="M12 0C5.37258 0 0 5.37258 0 12V36C0 42.6274 5.37258 48 12 48H36C42.6274 48 48 42.6274 48 36V12C48 5.37258 42.6274 0 36 0H12ZM12 2C6.47715 2 2 6.47715 2 12V36C2 41.5228 6.47715 46 12 46H36C41.5228 46 46 41.5228 46 36V12C46 6.47715 41.5228 2 36 2H12Z" fill="#29A9FF"/>
</svg>
