<svg width="214" height="48" viewBox="0 0 214 48" fill="#007ACC" xmlns="http://www.w3.org/2000/svg">
<path d="M64 35.8444C64 30.1477 68.5482 27.0601 79.2874 25.9363C79.1253 23.572 77.9408 22.0421 74.9962 22.0421C72.7165 22.0421 70.4424 22.999 67.8107 24.4843L64.9499 19.2271C68.3973 17.1298 72.2806 15.6667 76.5495 15.6667C83.4891 15.6667 87.3333 19.6166 87.3333 27.9057V43.3603H80.768L80.2093 40.5787H80.0081C77.7229 42.5758 75.1582 44 72.1074 44C67.1402 43.9945 64 40.3951 64 35.8444ZM79.2874 35.4828V30.7652C73.5658 31.5329 71.6996 33.1629 71.6996 35.2157C71.6996 36.957 72.9064 37.8082 74.8174 37.8082C76.6389 37.7971 77.8625 36.9181 79.2874 35.4828V35.4828Z"/>
<path d="M92.8048 16.3321H99.3844L99.9444 21.0567H100.146C102.128 17.4451 105.102 15.6755 107.879 15.6755C108.988 15.6222 110.095 15.8121 111.121 16.232L109.783 23.1491C108.827 22.8732 107.838 22.7272 106.843 22.715C104.794 22.715 102.302 24.0283 100.851 27.7234V43.394H92.788L92.8048 16.3321Z"/>
<path d="M112.788 8.18978C112.788 5.73044 114.73 4 117.409 4C120.089 4 122.03 5.73044 122.03 8.18978C122.03 10.6491 120.089 12.374 117.409 12.374C114.73 12.374 112.788 10.6269 112.788 8.18978ZM113.404 16.3579H121.392V43.3939H113.404V16.3579Z"/>
<path d="M126.121 35.8444C126.121 30.1477 130.644 27.0601 141.311 25.9363C141.15 23.572 139.974 22.0421 137.043 22.0421C134.785 22.0421 132.526 22.999 129.912 24.4843L127.07 19.2271C130.489 17.1298 134.346 15.6667 138.586 15.6667C145.485 15.6667 149.303 19.6166 149.303 27.9057V43.3603H142.782L142.227 40.5787H142.027C139.757 42.5758 137.215 44 134.185 44C129.246 43.9945 126.121 40.3951 126.121 35.8444ZM141.311 35.4828V30.7652C135.628 31.5329 133.774 33.1629 133.774 35.2157C133.774 36.957 134.968 37.8082 136.866 37.8082C138.675 37.7971 139.89 36.9181 141.311 35.4828V35.4828Z"/>
<path d="M154.455 5.06061H162.291V27.0045H162.492L171.075 16.2698H179.786L170.317 27.4343L180.515 43.3772H171.826L165.728 32.7877L162.291 36.6952V43.3939H154.455V5.06061Z"/>
<path d="M182.636 8.18978C182.636 5.73044 184.546 4 187.182 4C189.818 4 191.727 5.73044 191.727 8.18978C191.727 10.6491 189.818 12.374 187.182 12.374C184.546 12.374 182.636 10.6269 182.636 8.18978ZM183.242 16.3579H191.1V43.3939H183.242V16.3579Z"/>
<path d="M198.125 33.5265V22.6253H194.455V16.6524L198.573 16.3745L199.504 9.15149H206.097V16.3745H212.547V22.653H206.097V33.4321C206.097 36.4935 207.481 37.7214 209.579 37.7214C210.454 37.6929 211.318 37.5202 212.137 37.2103L213.394 43.0443C211.47 43.6815 209.457 44.0042 207.431 43.9999C200.788 43.9999 198.125 39.7828 198.125 33.5265Z"/>
<circle cx="29" cy="24" r="5"/>
<path fill-rule="evenodd" clip-rule="evenodd" d="M12 4C7.58172 4 4 7.58172 4 12V36C4 40.4183 7.58172 44 12 44H36C40.4183 44 44 40.4183 44 36V12C44 7.58172 40.4183 4 36 4H12ZM23.9997 35.9997C30.6271 35.9997 35.9997 30.6271 35.9997 23.9997C35.9997 17.3723 30.6271 11.9997 23.9997 11.9997C17.3723 11.9997 11.9997 17.3723 11.9997 23.9997C11.9997 30.6271 17.3723 35.9997 23.9997 35.9997Z"/>
<path fill-rule="evenodd" clip-rule="evenodd" d="M12 0C5.37258 0 0 5.37258 0 12V36C0 42.6274 5.37258 48 12 48H36C42.6274 48 48 42.6274 48 36V12C48 5.37258 42.6274 0 36 0H12ZM12 2C6.47715 2 2 6.47715 2 12V36C2 41.5228 6.47715 46 12 46H36C41.5228 46 46 41.5228 46 36V12C46 6.47715 41.5228 2 36 2H12Z"/>
</svg>
