<svg xmlns="http://www.w3.org/2000/svg" viewBox="0 0 709.59 200"><defs><style>.cls-1{fill:#ff4276;}.cls-2{fill:#282b36;}</style></defs><title>logo</title><g id="Layer_2" data-name="Layer 2"><g id="Layer_3" data-name="Layer 3"><polygon class="cls-1" points="129.9 25 86.6 0 43.3 25 86.6 50 129.9 25"/><polygon class="cls-1" points="86.6 50 86.6 100 129.9 75 129.9 25 86.6 50"/><polygon class="cls-1" points="129.9 125 86.6 100 43.3 125 86.6 150 129.9 125"/><polygon class="cls-1" points="86.6 150 86.6 200 129.9 175 129.9 125 86.6 150"/><polygon class="cls-1" points="0 50 0 200 43.3 175 43.3 25 0 50"/><path class="cls-2" d="M249.19,119.71h-19v52.18H214.27V39.67h33.15q23,0,34.82,10.79t11.87,29.82q-.39,13.73-7.26,23.34t-19.42,13.54l34.72,54.73h-19l-32.37-52.18ZM248.4,53.4H230.16v52.77h20q13.53,0,20.7-7.35T278,79.89Q278,53.4,248.4,53.4Z"/><path class="cls-2" d="M393.57,166.79q-11.58,6.08-28.25,6.08-22.56,0-36.39-13.83T315.1,122.46q0-23.74,12.36-37.47t31.78-13.74q18.63,0,29.62,12t11,33.94a63,63,0,0,1-1,11.57H331q1.77,14.72,11.18,22.56t24.72,7.85q16.67,0,26.68-6.87Zm-34.33-82a25.59,25.59,0,0,0-19,8q-7.84,8.06-9.22,23h53.36v-3.93q0-12.36-6.67-19.71T359.24,84.79Z"/><path class="cls-2" d="M477.13,160.12q-7.65,12.75-27.85,12.75-13.93,0-22.46-8.24t-8.54-20.79q0-14.33,10.89-22.27t29.72-7.94h18.05v-5.1q0-11.77-5.3-17.76t-17.85-6a48.89,48.89,0,0,0-28.25,8.44V77.73q11.19-6.87,29.43-6.87,37.45,0,37.46,38.06v63h-15.3Zm-23.34-.2q10.59,0,16.87-6a20.1,20.1,0,0,0,6.28-15.2V126H459.67q-12.56,0-18.83,4.9a15.09,15.09,0,0,0-6.28,12.36,15.78,15.78,0,0,0,4.91,12.06Q444.38,159.93,453.79,159.92Z"/><path class="cls-2" d="M535.2,171.89H519.9V34h15.3Zm20.2-52.18,40.41,52.18H577.18l-40-52.18,39-47.28h18.44Z"/><path class="cls-2" d="M629.75,34a9.88,9.88,0,0,1,2.94,7.26,9.53,9.53,0,0,1-2.94,7.16,10,10,0,0,1-7.26,2.85,9.73,9.73,0,0,1-10-10A10.08,10.08,0,0,1,615.33,34,9.56,9.56,0,0,1,622.49,31,9.86,9.86,0,0,1,629.75,34Zm.59,137.91h-15.5V72.43h15.5Z"/><path class="cls-2" d="M709.59,169.34a29.89,29.89,0,0,1-14.52,3.53q-29.42,0-29.42-30V85H649.76V72.43h15.89V47.71h15.5V72.43h27.46V85H681.15v58.26q0,15.88,14.9,15.89a21.63,21.63,0,0,0,13.54-4.51Z"/></g></g></svg>