<svg xmlns="http://www.w3.org/2000/svg" viewBox="0 0 707.5 199.93"><defs><style>.cls-1{fill:#ff4276;}.cls-2{fill:#282b36;}</style></defs><title>logo</title><g id="Layer_2" data-name="Layer 2"><g id="Layer_3" data-name="Layer 3"><polygon class="cls-1" points="86.68 99.98 130.14 125.02 86.73 150.14 43.27 125.1 86.68 99.98"/><polygon class="cls-1" points="86.71 50.02 129.97 25.04 129.97 75 86.71 99.98 86.71 50.02"/><polygon class="cls-1" points="86.68 0 130.14 25.04 86.73 50.16 43.27 25.12 86.68 0"/><polygon class="cls-1" points="86.88 149.97 130.14 124.99 130.14 174.95 86.88 199.93 86.88 149.97"/><polygon class="cls-1" points="0 50.12 43.27 25.14 43.27 174.95 0 199.93 0 50.12"/><path class="cls-2" d="M207.5,41.12h44.41a49,49,0,0,1,16.51,2.57,32.45,32.45,0,0,1,12,7.27,30.61,30.61,0,0,1,7.28,11.39,42.44,42.44,0,0,1,2.47,14.87,42.37,42.37,0,0,1-1.49,11.34,34.06,34.06,0,0,1-4.53,9.89,33.53,33.53,0,0,1-7.74,8.07,40.52,40.52,0,0,1-11.14,5.78q3.54,6.81,7.55,13.8t8.07,14q4.06,7,8.07,14t7.56,13.71H273.73L246,115.47h-1.31c-1.8,0-3.68-.08-5.64-.23s-3.78-.33-5.46-.52q-3-.36-5.78-.84V167.8H207.5Zm20.34,57.71c.56.08,1.47.19,2.75.31a42.71,42.71,0,0,0,4.29.19h10.4q11.85,0,17.68-5.34t5.83-16.48q0-9.75-5.27-15t-15-5.21H227.84Z"/><path class="cls-2" d="M306.29,121.34q0-12.87,3.26-22.16A40.65,40.65,0,0,1,318.7,83.9a35.63,35.63,0,0,1,14-8.81,54.9,54.9,0,0,1,17.95-2.81,44,44,0,0,1,16.19,2.8A33.88,33.88,0,0,1,379,83a34.25,34.25,0,0,1,7.55,12.15,44.71,44.71,0,0,1,2.62,15.6,50.71,50.71,0,0,1-.28,5.43c-.19,1.66-.41,3.1-.66,4.3-.25,1.44-.53,2.73-.84,3.88H326.16A48.76,48.76,0,0,0,327.93,138a19.52,19.52,0,0,0,5,8.57,18.18,18.18,0,0,0,8.35,4.4,49.74,49.74,0,0,0,11.94,1.25,68.19,68.19,0,0,0,10.54-.73,56.67,56.67,0,0,0,7.93-1.75,41.88,41.88,0,0,0,6.72-2.57,50.81,50.81,0,0,1,2.19,6c.53,1.85.92,3.46,1.17,4.82.24,1.61.43,3,.56,4.27a39.24,39.24,0,0,1-7.47,2.8,90.4,90.4,0,0,1-9.14,1.91,78.16,78.16,0,0,1-12.5.89,74.73,74.73,0,0,1-19.91-2.42,35.4,35.4,0,0,1-14.74-7.91,34.48,34.48,0,0,1-9.14-14.38Q306.28,134.29,306.29,121.34Zm62.87-10.81v-2.69A25,25,0,0,0,367.72,99a18.71,18.71,0,0,0-4-6.44,16.71,16.71,0,0,0-6-4,20.51,20.51,0,0,0-7.46-1.34A37.05,37.05,0,0,0,340,88.6a18.43,18.43,0,0,0-7.51,4.11,17.13,17.13,0,0,0-4.53,7.23,33.43,33.43,0,0,0-1.49,10.59Z"/><path class="cls-2" d="M402.37,139.21a33.33,33.33,0,0,1,2.24-12.92,21.35,21.35,0,0,1,6.58-8.7,29.5,29.5,0,0,1,10.54-5.09A54.11,54.11,0,0,1,436,110.81h20.81v-6.93a28,28,0,0,0-.89-7.7,10.1,10.1,0,0,0-2.94-4.85,11.87,11.87,0,0,0-5.45-2.55A41,41,0,0,0,439,88a43.37,43.37,0,0,0-9.56,1,70,70,0,0,0-7.88,2.23,57.11,57.11,0,0,0-7.37,3.26A32.31,32.31,0,0,1,411,89.22a36.84,36.84,0,0,1-1.86-4.62A21.59,21.59,0,0,1,408,80.12a69.38,69.38,0,0,1,9.61-3.92,91,91,0,0,1,10.31-2.71,60.62,60.62,0,0,1,12.26-1.21,71.71,71.71,0,0,1,17.63,1.81,26.72,26.72,0,0,1,11.15,5.47,19.16,19.16,0,0,1,5.78,9.23,46.85,46.85,0,0,1,1.64,13.15v50.47l7.83,9.52v5.87H466.92l-7.18-8.3h-3.36c-.31.25-1.13.83-2.47,1.71a42.2,42.2,0,0,1-5.13,2.82,46.43,46.43,0,0,1-7.09,2.63,30.41,30.41,0,0,1-8.44,1.14,37,37,0,0,1-12.69-2.06,28.1,28.1,0,0,1-9.75-5.86,26.11,26.11,0,0,1-6.25-9.08A29.88,29.88,0,0,1,402.37,139.21Zm20.34-.7a19.11,19.11,0,0,0,1.21,7.32,11.17,11.17,0,0,0,3.41,4.64,12.69,12.69,0,0,0,5.31,2.39,33.05,33.05,0,0,0,6.95.67,24,24,0,0,0,6.67-.89,34.82,34.82,0,0,0,5.46-2,29,29,0,0,0,5-2.89V123.4H438a19,19,0,0,0-7.33,1.24A12.89,12.89,0,0,0,426,127.9a11.75,11.75,0,0,0-2.52,4.73A22.55,22.55,0,0,0,422.71,138.51Z"/><path class="cls-2" d="M503.68,41.12h21.17V96.63h1.87l39.83-55.51h25.38L544,103l50.56,64.83H568.6L526,109.31h-1.12V167.8H503.68Z"/><path class="cls-2" d="M618,56.79a12.82,12.82,0,0,1-4.89-.93,13.11,13.11,0,0,1-4-2.52,12.15,12.15,0,0,1-2.76-3.68,10.23,10.23,0,0,1-1-4.53,10.73,10.73,0,0,1,1-4.66,12.12,12.12,0,0,1,2.76-3.73,12.44,12.44,0,0,1,4-2.47,13.4,13.4,0,0,1,4.89-.89,13.88,13.88,0,0,1,5,.89,12.57,12.57,0,0,1,4.06,2.47,12.25,12.25,0,0,1,2.75,3.73,10.73,10.73,0,0,1,1,4.66,10.23,10.23,0,0,1-1,4.53,12.28,12.28,0,0,1-2.75,3.68,13.35,13.35,0,0,1-9,3.45ZM607.32,72.37h19.4v79.85l5.5,3.92V167.8h-5.5q-9.24,0-14.32-3.73t-5.08-12.33Z"/><path class="cls-2" d="M659.74,86.83H647.52c-.06-.68-.12-1.43-.19-2.24s-.1-1.49-.13-2.42-.05-2-.05-3.08,0-2.16.09-3.13.16-2.16.28-3.59h12.22V55.22l10.73-14.1h8.3V72.37h26.4c.13.63.23,1.37.33,2.24a24.54,24.54,0,0,1,.14,2.52,17,17,0,0,1-.42,3.92,29.71,29.71,0,0,1-.89,3.08,15.73,15.73,0,0,1-1.3,2.7H678.77v52.75q0,6.64,2.29,9.64t7.32,3a22.13,22.13,0,0,0,4.52-.49,39.37,39.37,0,0,0,4.53-1.22c1.61-.54,3.26-1.15,4.94-1.81a24.19,24.19,0,0,1,2.94,4.72,23.33,23.33,0,0,1,1.54,4.16,19.61,19.61,0,0,1,.65,4,34.31,34.31,0,0,1-5.87,3.17,47.16,47.16,0,0,1-6.91,2.2,39.24,39.24,0,0,1-9.23,1,35.91,35.91,0,0,1-12.18-1.79,18.51,18.51,0,0,1-7.92-5.3,20.8,20.8,0,0,1-4.34-8.77,50.47,50.47,0,0,1-1.31-12.11Z"/></g></g></svg>