<svg xmlns="http://www.w3.org/2000/svg" viewBox="0 0 751.11 200"><defs><style>.cls-1{fill:#fff;}.cls-2{fill:#ff86cf;}.cls-3{fill:#ff4276;}</style></defs><title>logo-light</title><g id="Layer_2" data-name="Layer 2"><g id="Layer_3" data-name="Layer 3"><path class="cls-1" d="M251.11,41.14h44.4A49,49,0,0,1,312,43.7,32.42,32.42,0,0,1,324,51a30.49,30.49,0,0,1,7.28,11.38,42.54,42.54,0,0,1,2.47,14.88,42.24,42.24,0,0,1-1.49,11.33,34.2,34.2,0,0,1-4.53,9.89,33.17,33.17,0,0,1-7.74,8.07,40.44,40.44,0,0,1-11.15,5.78q3.56,6.81,7.56,13.81t8.07,14q4,7,8.07,14t7.55,13.72H317.34l-27.7-52.34h-1.31c-1.8,0-3.68-.07-5.64-.23s-3.78-.33-5.46-.51q-3-.37-5.78-.84v53.92H251.11Zm20.34,57.7c.56.08,1.47.19,2.75.32s2.7.19,4.29.19h10.4q11.85,0,17.68-5.34t5.83-16.49q0-9.75-5.27-14.95t-15-5.2H271.45Z"/><path class="cls-1" d="M349.9,121.35q0-12.87,3.26-22.16a40.73,40.73,0,0,1,9.15-15.28,35.64,35.64,0,0,1,14-8.8,54.74,54.74,0,0,1,18-2.82,44.22,44.22,0,0,1,16.19,2.8,33.2,33.2,0,0,1,19.63,20,44.71,44.71,0,0,1,2.62,15.6,50.71,50.71,0,0,1-.28,5.43c-.19,1.67-.41,3.1-.66,4.31-.25,1.43-.53,2.73-.84,3.88H369.77A48.73,48.73,0,0,0,371.54,138a19.46,19.46,0,0,0,5,8.57,18.2,18.2,0,0,0,8.35,4.41,50.25,50.25,0,0,0,11.94,1.25,68.11,68.11,0,0,0,10.54-.74,58.26,58.26,0,0,0,7.93-1.74,42.85,42.85,0,0,0,6.72-2.57,50.08,50.08,0,0,1,2.19,6c.53,1.86.92,3.46,1.17,4.82.24,1.61.43,3,.56,4.27a39.5,39.5,0,0,1-7.47,2.8,88.28,88.28,0,0,1-9.14,1.91,78.16,78.16,0,0,1-12.5.89,74.88,74.88,0,0,1-19.92-2.41,35.53,35.53,0,0,1-14.73-7.91A34.7,34.7,0,0,1,353,143.2Q349.9,134.31,349.9,121.35Zm62.87-10.81v-2.69A25,25,0,0,0,411.33,99a18.57,18.57,0,0,0-4-6.43,16.45,16.45,0,0,0-6-4,20.3,20.3,0,0,0-7.46-1.35,37.16,37.16,0,0,0-10.36,1.31,18.55,18.55,0,0,0-7.5,4.1,16.94,16.94,0,0,0-4.53,7.23,33.43,33.43,0,0,0-1.49,10.59Z"/><path class="cls-1" d="M446,139.23a33.3,33.3,0,0,1,2.24-12.92,21.23,21.23,0,0,1,6.58-8.71,29.66,29.66,0,0,1,10.54-5.09,54.06,54.06,0,0,1,14.22-1.69h20.81V103.9a28.05,28.05,0,0,0-.89-7.71,10,10,0,0,0-2.94-4.84,11.87,11.87,0,0,0-5.46-2.56,40.86,40.86,0,0,0-8.44-.73,42.78,42.78,0,0,0-9.56,1,68,68,0,0,0-7.88,2.23,55.77,55.77,0,0,0-7.37,3.26,33.16,33.16,0,0,1-3.27-5.34,36.53,36.53,0,0,1-1.86-4.62,21.67,21.67,0,0,1-1.12-4.49,70.64,70.64,0,0,1,9.61-3.92,91.5,91.5,0,0,1,10.3-2.7,60.07,60.07,0,0,1,12.27-1.22,72.2,72.2,0,0,1,17.63,1.81,26.72,26.72,0,0,1,11.15,5.47,19.28,19.28,0,0,1,5.78,9.23A46.92,46.92,0,0,1,520,102v50.46l7.83,9.52v5.88H510.53l-7.18-8.31H500c-.31.26-1.13.83-2.47,1.72a42.2,42.2,0,0,1-5.13,2.82,46.45,46.45,0,0,1-7.09,2.62,30,30,0,0,1-8.44,1.15,36.88,36.88,0,0,1-12.69-2.07,27.94,27.94,0,0,1-9.75-5.86,26,26,0,0,1-6.25-9.07A29.91,29.91,0,0,1,446,139.23Zm20.34-.7a19.09,19.09,0,0,0,1.21,7.31,11.17,11.17,0,0,0,3.4,4.64,12.79,12.79,0,0,0,5.32,2.39,33,33,0,0,0,6.95.67,24.38,24.38,0,0,0,6.67-.88,34.17,34.17,0,0,0,5.46-2,29,29,0,0,0,5-2.89V123.41H481.62a18.84,18.84,0,0,0-7.33,1.25,12.79,12.79,0,0,0-4.71,3.25,11.81,11.81,0,0,0-2.52,4.73A22.15,22.15,0,0,0,466.32,138.53Z"/><path class="cls-1" d="M547.29,41.14h21.17v55.5h1.87l39.83-55.5h25.37L587.59,103l50.56,64.84H612.21l-42.63-58.49h-1.12v58.49H547.29Z"/><path class="cls-1" d="M661.65,56.81a12.82,12.82,0,0,1-4.89-.93,13.56,13.56,0,0,1-4-2.52A12.45,12.45,0,0,1,650,49.67a10.19,10.19,0,0,1-1-4.52,10.74,10.74,0,0,1,1-4.67,12.25,12.25,0,0,1,2.75-3.73,12.67,12.67,0,0,1,4-2.47,13.4,13.4,0,0,1,4.89-.89,13.88,13.88,0,0,1,5,.89,12.59,12.59,0,0,1,4,2.47,12.12,12.12,0,0,1,2.76,3.73,10.74,10.74,0,0,1,1,4.67,10.19,10.19,0,0,1-1,4.52,12.31,12.31,0,0,1-2.76,3.69,13.46,13.46,0,0,1-4,2.52A13.28,13.28,0,0,1,661.65,56.81ZM650.92,72.39h19.41v79.85l5.5,3.92v11.66h-5.5q-9.24,0-14.32-3.74t-5.09-12.33Z"/><path class="cls-1" d="M703.35,86.85H691.13c-.06-.69-.12-1.43-.19-2.24s-.1-1.5-.14-2.43,0-2,0-3.08,0-2.16.09-3.12.16-2.16.28-3.59h12.22V55.24l10.73-14.1h8.3V72.39h26.4c.12.62.23,1.36.33,2.24a24.51,24.51,0,0,1,.14,2.51,17,17,0,0,1-.42,3.92,29.71,29.71,0,0,1-.89,3.08,15.15,15.15,0,0,1-1.31,2.71H722.38V139.6c0,4.42.76,7.64,2.29,9.64s4,3,7.32,3a22.17,22.17,0,0,0,4.52-.5,39.37,39.37,0,0,0,4.53-1.22q2.41-.81,4.94-1.81a25.51,25.51,0,0,1,2.94,4.72,24.44,24.44,0,0,1,1.54,4.16,19.59,19.59,0,0,1,.65,4,34.73,34.73,0,0,1-5.88,3.17,45.53,45.53,0,0,1-6.9,2.19,39.24,39.24,0,0,1-9.23,1,35.93,35.93,0,0,1-12.18-1.78,18.72,18.72,0,0,1-7.93-5.3,20.94,20.94,0,0,1-4.33-8.78,50.47,50.47,0,0,1-1.31-12.11Z"/><polygon class="cls-2" points="130.29 99.98 173.75 125.02 130.34 150.14 86.88 125.1 130.29 99.98"/><polygon class="cls-2" points="43.42 0.1 86.88 25.14 43.46 50.26 0 25.21 43.42 0.1"/><polygon class="cls-3" points="130.31 50.02 173.58 25.04 173.58 75 130.31 99.98 130.31 50.02"/><polygon class="cls-2" points="130.29 0 173.75 25.04 130.34 50.16 86.88 25.12 130.29 0"/><polygon class="cls-3" points="43.61 50.12 86.88 25.14 86.88 75.1 43.61 100.08 43.61 50.12"/><polygon class="cls-3" points="43.61 100.08 86.88 75.1 86.88 125.06 43.61 150.04 43.61 100.08"/><polygon class="cls-3" points="43.61 150.04 86.88 125.06 86.88 175.02 43.61 200 43.61 150.04"/><polygon class="cls-3" points="130.49 149.97 173.75 124.99 173.75 174.95 130.49 199.93 130.49 149.97"/></g></g></svg>