<svg xmlns="http://www.w3.org/2000/svg" viewBox="0 0 707.5 200"><defs><style>.cls-1{fill:#ff4276;}.cls-2{fill:#fff;}</style></defs><title>logo-light</title><g id="Layer_2" data-name="Layer 2"><g id="Layer_3" data-name="Layer 3"><polygon class="cls-1" points="86.6 0 43.3 25 86.6 50 86.6 100 129.9 75 129.9 25 86.6 0"/><polygon class="cls-1" points="86.6 100 43.3 125 86.6 150 86.6 200 129.9 175 129.9 125 86.6 100"/><polygon class="cls-1" points="0 50 0 200 43.3 175 43.3 25 0 50"/><path class="cls-2" d="M207.5,41.79h44.41a49,49,0,0,1,16.51,2.57,32.32,32.32,0,0,1,12,7.27A30.57,30.57,0,0,1,287.68,63a42.54,42.54,0,0,1,2.47,14.88,42.37,42.37,0,0,1-1.49,11.34,33.88,33.88,0,0,1-4.53,9.88,33.17,33.17,0,0,1-7.74,8.07A40.53,40.53,0,0,1,265.25,113q3.54,6.81,7.55,13.8t8.07,14q4.06,7,8.07,14t7.56,13.71H273.73L246,116.14h-1.31q-2.7,0-5.64-.24t-5.46-.51q-3-.37-5.78-.84v53.92H207.5Zm20.34,57.7c.56.09,1.47.2,2.75.32a42.71,42.71,0,0,0,4.29.19h10.4q11.85,0,17.68-5.34t5.83-16.48q0-9.75-5.27-15t-15-5.2H227.84Z"/><path class="cls-2" d="M306.29,122q0-12.87,3.26-22.16a40.78,40.78,0,0,1,9.15-15.29,35.61,35.61,0,0,1,14-8.8A54.9,54.9,0,0,1,350.69,73a44,44,0,0,1,16.19,2.8A33.86,33.86,0,0,1,379,83.63a34.38,34.38,0,0,1,7.55,12.16,44.7,44.7,0,0,1,2.62,15.59,50.44,50.44,0,0,1-.28,5.43c-.19,1.67-.41,3.11-.66,4.31-.25,1.44-.53,2.73-.84,3.88H326.16a48.81,48.81,0,0,0,1.77,13.67,19.52,19.52,0,0,0,5,8.57,18.18,18.18,0,0,0,8.35,4.4,49.74,49.74,0,0,0,11.94,1.25,68.19,68.19,0,0,0,10.54-.73,56.67,56.67,0,0,0,7.93-1.75,41.88,41.88,0,0,0,6.72-2.57,51.35,51.35,0,0,1,2.19,6q.8,2.79,1.17,4.83c.24,1.61.43,3,.56,4.27a39.24,39.24,0,0,1-7.47,2.8,90.4,90.4,0,0,1-9.14,1.91,78.25,78.25,0,0,1-12.5.88,74.75,74.75,0,0,1-19.91-2.41,35.4,35.4,0,0,1-14.74-7.91,34.55,34.55,0,0,1-9.14-14.38Q306.28,135,306.29,122Zm62.87-10.82v-2.68a24.93,24.93,0,0,0-1.44-8.81,18.61,18.61,0,0,0-4-6.44,16.58,16.58,0,0,0-6-4A20.51,20.51,0,0,0,350.32,88,37.05,37.05,0,0,0,340,89.27a18.43,18.43,0,0,0-7.51,4.11,17.13,17.13,0,0,0-4.53,7.23,33.41,33.41,0,0,0-1.49,10.58Z"/><path class="cls-2" d="M402.37,139.88A33.3,33.3,0,0,1,404.61,127a21.45,21.45,0,0,1,6.58-8.71,29.65,29.65,0,0,1,10.54-5.08,54.09,54.09,0,0,1,14.22-1.7h20.81v-6.92a28,28,0,0,0-.89-7.7A10.05,10.05,0,0,0,452.93,92a11.87,11.87,0,0,0-5.45-2.55,41,41,0,0,0-8.45-.74,43.37,43.37,0,0,0-9.56,1A70,70,0,0,0,421.59,92a55.77,55.77,0,0,0-7.37,3.26A32.31,32.31,0,0,1,411,89.89a36.84,36.84,0,0,1-1.86-4.62A21.52,21.52,0,0,1,408,80.78a70.62,70.62,0,0,1,9.61-3.91,91,91,0,0,1,10.31-2.71A59.91,59.91,0,0,1,440.15,73a71.71,71.71,0,0,1,17.63,1.81,26.61,26.61,0,0,1,11.15,5.47,19.18,19.18,0,0,1,5.78,9.22,47,47,0,0,1,1.64,13.16v50.47l7.83,9.51v5.88H466.92l-7.18-8.3h-3.36c-.31.25-1.13.82-2.47,1.71a42.2,42.2,0,0,1-5.13,2.82,46.43,46.43,0,0,1-7.09,2.63,30.41,30.41,0,0,1-8.44,1.14,37.2,37.2,0,0,1-12.69-2.06,28.12,28.12,0,0,1-9.75-5.87,26.07,26.07,0,0,1-6.25-9.07A29.88,29.88,0,0,1,402.37,139.88Zm20.34-.7a19.18,19.18,0,0,0,1.21,7.32,11.23,11.23,0,0,0,3.41,4.64,12.81,12.81,0,0,0,5.31,2.39,33.73,33.73,0,0,0,6.95.67,24.32,24.32,0,0,0,6.67-.89,34.82,34.82,0,0,0,5.46-2,29.09,29.09,0,0,0,5-2.9V124.07H438a18.85,18.85,0,0,0-7.33,1.24,12.87,12.87,0,0,0-4.71,3.25,11.79,11.79,0,0,0-2.52,4.74A22.55,22.55,0,0,0,422.71,139.18Z"/><path class="cls-2" d="M503.68,41.79h21.17v55.5h1.87l39.83-55.5h25.38L544,103.64l50.56,64.83H568.6L526,110h-1.12v58.49H503.68Z"/><path class="cls-2" d="M618,57.46a12.82,12.82,0,0,1-4.89-.93,13.11,13.11,0,0,1-4-2.52,12.27,12.27,0,0,1-2.76-3.68,10.23,10.23,0,0,1-1-4.53,10.7,10.7,0,0,1,1-4.66,12,12,0,0,1,2.76-3.73,12.64,12.64,0,0,1,4-2.48,13.39,13.39,0,0,1,4.89-.88,13.87,13.87,0,0,1,5,.88,12.77,12.77,0,0,1,4.06,2.48,12.13,12.13,0,0,1,2.75,3.73,10.7,10.7,0,0,1,1,4.66,10.23,10.23,0,0,1-1,4.53A12.41,12.41,0,0,1,627.05,54a13.35,13.35,0,0,1-9,3.45ZM607.32,73h19.4v79.85l5.5,3.92v11.66h-5.5q-9.24,0-14.32-3.73t-5.08-12.33Z"/><path class="cls-2" d="M659.74,87.5H647.52c-.06-.68-.12-1.43-.19-2.24s-.1-1.49-.13-2.42-.05-2-.05-3.08,0-2.16.09-3.13.16-2.16.28-3.59h12.22V55.89l10.73-14.1h8.3V73h26.4c.13.62.23,1.37.33,2.24a24.54,24.54,0,0,1,.14,2.52,17,17,0,0,1-.42,3.92,29.47,29.47,0,0,1-.89,3.07A15.84,15.84,0,0,1,703,87.5H678.77v52.75q0,6.65,2.29,9.64t7.32,3a21.49,21.49,0,0,0,4.52-.5,39.38,39.38,0,0,0,4.53-1.21q2.42-.83,4.94-1.81a24.13,24.13,0,0,1,2.94,4.71,23.69,23.69,0,0,1,1.54,4.17,19.5,19.5,0,0,1,.65,4,35,35,0,0,1-5.87,3.17,46.05,46.05,0,0,1-6.91,2.19,38.72,38.72,0,0,1-9.23,1,35.93,35.93,0,0,1-12.18-1.78,18.6,18.6,0,0,1-7.92-5.3,20.8,20.8,0,0,1-4.34-8.77,50.53,50.53,0,0,1-1.31-12.11Z"/></g></g></svg>