<svg id="Layer_1" data-name="Layer 1" xmlns="http://www.w3.org/2000/svg" viewBox="0 0 1257.48 1067.43"><defs><style>.cls-1{fill:#30bf28;}.cls-2{fill:#ffb600;}.cls-3{fill:#ff7b00;}.cls-4{fill:#00a0e3;}.cls-5{fill:#a13298;}.cls-6{fill:#f31e32;}.cls-7{fill:#b3b3b3;}.cls-8{fill:#f2f2f2;}</style></defs><title>logo-vertical</title><path class="cls-1" d="M502.8,69.09q-31.41,0-46.16,8.48t-12.25,31.09l9.42,93a150.57,150.57,0,0,1,.63,15.71q0,41.44-25.44,62.49t-72.54,27.95q49.6,7.55,74.11,27.64T455.07,397q0,4.4-1.26,17l-9.42,92.95q-2.52,22,12.56,30.78t45.85,8.79v69.09q-80.4,0-115.88-22t-35.48-73.49q0-6.27,1.25-20.1l9.42-90.44.63-8.16q0-28.89-22.92-41.14T275.44,348v-80.4q87.29,0,87.3-53.38l-.63-8.17-9.42-89.81q-1.26-15.08-1.25-21.36,0-51.49,35.8-73.17T502.8,0Z"/><path class="cls-2" d="M571.27,69.09q-31.42,0-46.17,8.48t-12.24,31.09l9.42,93a154,154,0,0,1,.62,15.71q0,41.44-25.43,62.49t-72.55,27.95q49.62,7.55,74.12,27.64T523.53,397q0,4.4-1.25,17l-9.42,92.95q-2.52,22,12.56,30.78t45.85,8.79v69.09q-80.42,0-115.88-22T419.9,520.05q0-6.27,1.25-20.1l9.43-90.44.62-8.16q0-28.89-22.92-41.14T343.9,348v-80.4q87.3,0,87.3-53.38l-.62-8.17-9.43-89.81q-1.26-15.08-1.25-21.36,0-51.49,35.8-73.17T571.27,0Z"/><path class="cls-3" d="M639.73,69.09q-31.41,0-46.16,8.48t-12.25,31.09l9.42,93a153.42,153.42,0,0,1,.63,15.71q0,41.44-25.44,62.49t-72.54,27.95Q543,315.31,567.5,335.4T592,397q0,4.4-1.26,17l-9.42,92.95q-2.52,22,12.56,30.78t45.85,8.79v69.09q-80.4,0-115.88-22t-35.49-73.49q0-6.27,1.26-20.1L499,409.51l.63-8.16q0-28.89-22.93-41.14T412.36,348v-80.4q87.3,0,87.31-53.38L499,206l-9.42-89.81q-1.28-15.08-1.26-21.36,0-51.49,35.8-73.17T639.73,0Z"/><path class="cls-4" d="M754.68,0q79.77,0,115.57,21.67t35.8,73.17q0,6.28-1.26,21.36L895.37,206l-.63,8.17q0,53.38,87.31,53.38V348q-41.46,0-64.38,12.25t-22.93,41.14l.63,8.16L904.79,500q1.28,13.83,1.26,20.1,0,51.5-35.49,73.49t-115.88,22V546.43q30.78,0,45.85-8.79t12.56-30.78l-9.42-92.95q-1.24-12.56-1.26-17,0-41.46,24.5-61.55T901,307.76q-47.1-6.9-72.54-27.95T803,217.32a153.42,153.42,0,0,1,.63-15.71l9.42-93Q815.61,86,800.84,77.57t-46.16-8.48Z"/><path class="cls-5" d="M686.22,0Q766,0,801.78,21.67t35.81,73.17q0,6.28-1.26,21.36L826.91,206l-.63,8.17q0,53.38,87.3,53.38V348q-41.45,0-64.38,12.25t-22.92,41.14l.63,8.16L836.33,500q1.26,13.83,1.26,20.1,0,51.5-35.49,73.49t-115.88,22V546.43q30.78,0,45.85-8.79t12.56-30.78l-9.42-92.95Q734,401.36,734,397q0-41.46,24.5-61.55t74.11-27.64q-47.1-6.9-72.54-27.95t-25.44-62.49a153.42,153.42,0,0,1,.63-15.71l9.42-93Q747.15,86,732.38,77.57t-46.16-8.48Z"/><path class="cls-6" d="M617.75,0q79.77,0,115.57,21.67t35.8,73.17q0,6.28-1.25,21.36L758.44,206l-.62,8.17q0,53.38,87.3,53.38V348q-41.46,0-64.38,12.25t-22.92,41.14l.62,8.16L767.87,500q1.26,13.83,1.25,20.1,0,51.5-35.48,73.49t-115.89,22V546.43q30.78,0,45.85-8.79t12.57-30.78l-9.43-92.95q-1.25-12.56-1.25-17,0-41.46,24.49-61.55t74.12-27.64q-47.11-6.9-72.55-27.95t-25.43-62.49a154,154,0,0,1,.62-15.71l9.43-93Q678.68,86,663.92,77.57t-46.17-8.48Z"/><path class="cls-7" d="M290.83,740.84,273.55,873.15H214V815.34q-26.22,4.17-46.48,28t-31.59,60.19v90.59h62.58v63.17H0V994.13H41.72V803.42H0V740.84H113.83l16.69,70.92q17.28-40.51,43.5-60.49t64.37-20Q267,731.31,290.83,740.84Z"/><path class="cls-7" d="M482.73,998.9q40.53,0,81-26.23l37.55,51.26q-23.25,20.27-55.43,31.88T475,1067.43q-53,0-90-21.15a136.45,136.45,0,0,1-55.72-59q-18.78-37.85-18.77-87.91,0-47.67,18.17-86.12t53-60.79q34.88-22.35,83.14-22.35,45.28,0,78.67,19.37t51.55,56q18.18,36.66,18.18,87.31a278.93,278.93,0,0,1-1.79,34h-205Q415.39,998.9,482.73,998.9Zm-59-186.84q-15.51,18.78-18.47,57.51H521.47q-1.2-76.27-56.62-76.28Q439.22,793.29,423.73,812.06Z"/><path class="cls-8" d="M923.74,991.75q4.77,8.34,16.1,12.51l-19.67,62q-28.6-3-47.68-12.81a70.79,70.79,0,0,1-29.8-28.91q-17.88,20.88-45.29,31.89a155.09,155.09,0,0,1-58.41,11q-48.87,0-78.07-27.71t-29.2-71.81q0-51.25,40.52-79.57T786.08,860h42.31V848.71q0-48.86-62.58-48.87-16.08,0-40.23,4.47a330.69,330.69,0,0,0-46.78,12.22L657.35,754a388.75,388.75,0,0,1,63.47-17.58q33.07-6.25,59.89-6.26,138.25,0,138.27,112v124Q919,983.42,923.74,991.75Zm-120.08-.9a60.75,60.75,0,0,0,24.73-25.33V913.67H805.15q-76.3,0-76.29,47.68,0,18.48,11,28.61t31.29,10.13Q787.26,1000.09,803.66,990.85Z"/><path class="cls-8" d="M1145.74,992.64q14-7.44,14-22.35,0-10.72-5.66-17.28t-21.15-12.82q-15.51-6.26-48.28-15.19-47.69-12.53-72.71-34.87t-25-61.68q0-43.5,36.06-70.92t101-27.42q75.09,0,128.13,38.74l-37.55,55.43q-43.5-26.82-87.6-26.82-23.25,0-34.27,6t-11,18.47a19,19,0,0,0,5.66,14q5.67,5.67,21.46,11.62t47.38,14.9q34,9.54,55.72,20.86t33.67,30.39q11.93,19.08,11.92,48.87,0,33.39-20.26,57.22T1183,1055.51q-34,11.92-75.09,11.92-44.12,0-79.87-12.51t-60.78-35.16l47.08-53q42.9,33.39,93,33.38Q1131.73,1000.09,1145.74,992.64Z"/></svg>
