<svg id="Layer_1" data-name="Layer 1" xmlns="http://www.w3.org/2000/svg" viewBox="0 0 706.61 615.52"><defs><style>.cls-1{fill:#30bf28;}.cls-2{fill:#ffb600;}.cls-3{fill:#ff7b00;}.cls-4{fill:#00a0e3;}.cls-5{fill:#a13298;}.cls-6{fill:#f31e32;}</style></defs><title>symbol</title><path class="cls-1" d="M227.37,69.09q-31.43,0-46.17,8.48T169,108.66l9.42,93a154,154,0,0,1,.62,15.71q0,41.44-25.43,62.49T81,307.76q49.62,7.55,74.12,27.64T179.63,397q0,4.4-1.25,17L169,506.86q-2.52,22,12.56,30.78t45.85,8.79v69.09q-80.42,0-115.88-22T76,520.05q0-6.27,1.25-20.1l9.43-90.44.62-8.16q0-28.89-22.92-41.14T0,348v-80.4q87.3,0,87.3-53.38L86.68,206,77.25,116.2Q76,101.13,76,94.84q0-51.49,35.8-73.17T227.37,0Z"/><path class="cls-2" d="M295.83,69.09q-31.41,0-46.16,8.48t-12.25,31.09l9.42,93a153.42,153.42,0,0,1,.63,15.71q0,41.44-25.44,62.49t-72.54,27.95q49.6,7.55,74.11,27.64T248.1,397q0,4.4-1.26,17l-9.42,92.95q-2.52,22,12.56,30.78t45.85,8.79v69.09q-80.4,0-115.88-22t-35.49-73.49q0-6.27,1.26-20.1l9.42-90.44.63-8.16q0-28.89-22.93-41.14T68.46,348v-80.4q87.3,0,87.31-53.38l-.63-8.17-9.42-89.81q-1.28-15.08-1.26-21.36,0-51.49,35.8-73.17T295.83,0Z"/><path class="cls-3" d="M364.29,69.09q-31.41,0-46.16,8.48t-12.25,31.09l9.42,93a153.42,153.42,0,0,1,.63,15.71q0,41.44-25.44,62.49T218,307.76q49.61,7.55,74.11,27.64T316.56,397q0,4.4-1.26,17l-9.42,92.95q-2.52,22,12.56,30.78t45.85,8.79v69.09q-80.4,0-115.88-22t-35.49-73.49q0-6.27,1.26-20.1l9.42-90.44.63-8.16q0-28.89-22.92-41.14T136.93,348v-80.4q87.29,0,87.3-53.38L223.6,206l-9.42-89.81q-1.26-15.08-1.26-21.36,0-51.49,35.81-73.17T364.29,0Z"/><path class="cls-4" d="M479.24,0Q559,0,594.81,21.67t35.8,73.17q0,6.28-1.25,21.36L619.93,206l-.62,8.17q0,53.38,87.3,53.38V348q-41.46,0-64.38,12.25t-22.92,41.14l.62,8.16L629.36,500q1.26,13.83,1.25,20.1,0,51.5-35.49,73.49t-115.88,22V546.43q30.78,0,45.85-8.79t12.56-30.78l-9.42-92.95Q527,401.36,527,397q0-41.46,24.49-61.55t74.12-27.64q-47.12-6.9-72.55-27.95t-25.43-62.49a154,154,0,0,1,.62-15.71l9.42-93Q540.17,86,525.41,77.57t-46.17-8.48Z"/><path class="cls-5" d="M410.78,0q79.77,0,115.57,21.67t35.8,73.17q0,6.28-1.26,21.36L551.47,206l-.63,8.17q0,53.38,87.31,53.38V348q-41.46,0-64.38,12.25t-22.93,41.14l.63,8.16L560.89,500q1.27,13.83,1.26,20.1,0,51.5-35.49,73.49t-115.88,22V546.43q30.78,0,45.85-8.79t12.56-30.78l-9.42-92.95q-1.25-12.56-1.26-17,0-41.46,24.5-61.55t74.11-27.64q-47.1-6.9-72.54-27.95t-25.44-62.49a153.42,153.42,0,0,1,.63-15.71l9.42-93Q471.71,86,456.94,77.57t-46.16-8.48Z"/><path class="cls-6" d="M342.32,0q79.77,0,115.56,21.67t35.81,73.17q0,6.28-1.26,21.36L483,206l-.63,8.17q0,53.38,87.3,53.38V348q-41.45,0-64.38,12.25t-22.92,41.14l.63,8.16L492.43,500q1.26,13.83,1.26,20.1,0,51.5-35.49,73.49t-115.88,22V546.43q30.78,0,45.85-8.79t12.56-30.78l-9.42-92.95q-1.26-12.56-1.26-17,0-41.46,24.5-61.55t74.11-27.64q-47.1-6.9-72.54-27.95t-25.44-62.49a153.42,153.42,0,0,1,.63-15.71l9.42-93Q403.25,86,388.48,77.57t-46.16-8.48Z"/></svg>