<svg xmlns="http://www.w3.org/2000/svg" viewBox="0 0 250 250"><defs><style>.cls-1{fill:none;}.cls-2{fill:#ff86cf;}.cls-3{fill:#ff4276;}</style></defs><title>symbol-spaced</title><g id="Layer_2" data-name="Layer 2"><g id="Layer_3" data-name="Layer 3"><rect class="cls-1" width="250" height="250" rx="125" ry="125"/><polygon class="cls-2" points="168.42 124.98 211.88 150.02 168.46 175.14 125 150.1 168.42 124.98"/><polygon class="cls-2" points="81.54 25.1 125 50.14 81.58 75.26 38.12 50.22 81.54 25.1"/><polygon class="cls-3" points="168.44 75.02 211.71 50.04 211.71 100 168.44 124.98 168.44 75.02"/><polygon class="cls-2" points="168.42 25 211.88 50.04 168.46 75.16 125 50.12 168.42 25"/><polygon class="cls-3" points="168.61 174.97 211.88 149.99 211.88 199.95 168.61 224.93 168.61 174.97"/><polygon class="cls-3" points="81.73 75.12 125 50.13 125 200.02 81.73 225 81.73 75.12"/></g></g></svg>