<svg xmlns="http://www.w3.org/2000/svg" viewBox="0 0 200 200"><defs><style>.cls-1{fill:none;}.cls-2{fill:#ff86cf;}.cls-3{fill:#ff4276;}</style></defs><title>symbol</title><g id="Layer_2" data-name="Layer 2"><g id="Layer_3" data-name="Layer 3"><rect class="cls-1" width="200" height="200"/><polygon class="cls-2" points="143.42 99.98 186.88 125.02 143.46 150.14 100 125.1 143.42 99.98"/><polygon class="cls-2" points="56.54 0.1 100 25.14 56.58 50.26 13.12 25.21 56.54 0.1"/><polygon class="cls-3" points="143.44 50.02 186.71 25.04 186.71 75 143.44 99.98 143.44 50.02"/><polygon class="cls-2" points="143.42 0 186.88 25.04 143.46 50.16 100 25.12 143.42 0"/><polygon class="cls-3" points="143.61 149.97 186.88 124.99 186.88 174.95 143.61 199.93 143.61 149.97"/><polygon class="cls-3" points="56.73 50.12 100 25.14 100 174.95 56.73 199.93 56.73 50.12"/></g></g></svg>