<svg xmlns="http://www.w3.org/2000/svg" viewBox="0 0 240 240"><defs><style>.cls-1{fill:#ff5e99;}.cls-1,.cls-2,.cls-3{stroke:#282b36;stroke-linejoin:bevel;stroke-width:3px;}.cls-2{fill:#ff4276;}.cls-3{fill:#ff86cf;}.cls-4{fill:#282b36;opacity:0.3;}.cls-5{fill:none;}</style></defs><title>symbol-spaced</title><g id="Layer_2" data-name="Layer 2"><g id="Layer_3" data-name="Layer 3"><polygon class="cls-1" points="36 192.4 78.29 216.81 78.29 167.99 36 143.57 36 192.4"/><polygon class="cls-2" points="78.29 167.99 120.57 143.57 120.57 192.4 78.29 216.81 78.29 167.99"/><polygon class="cls-3" points="78.14 119.46 120.23 143.72 78.18 168.05 36.08 143.79 78.14 119.46"/><polygon class="cls-1" points="119.43 192.4 161.71 216.81 161.71 167.99 119.43 143.57 119.43 192.4"/><polygon class="cls-2" points="161.71 167.99 204 143.57 204 192.4 161.71 216.81 161.71 167.99"/><polygon class="cls-3" points="162.51 119.46 204.61 143.72 162.55 168.05 120.45 143.79 162.51 119.46"/><polygon class="cls-1" points="36 143.84 78.29 168.25 78.29 119.42 36 95.01 36 143.84"/><polygon class="cls-2" points="78.29 119.42 120.57 95.01 120.57 143.84 78.29 168.25 78.29 119.42"/><polygon class="cls-3" points="78.14 70.89 120.23 95.15 78.18 119.48 36.08 95.22 78.14 70.89"/><polygon class="cls-1" points="36 95.27 78.29 119.68 78.29 70.86 36 46.44 36 95.27"/><polygon class="cls-3" points="78.29 70.86 120.57 46.44 120.57 95.27 78.29 119.68 78.29 70.86"/><polygon class="cls-3" points="78.14 22.33 120.23 46.59 78.18 70.92 36.08 46.66 78.14 22.33"/><polygon class="cls-3" points="119.43 95.25 161.71 119.66 161.71 70.83 119.43 46.42 119.43 95.25"/><polygon class="cls-2" points="161.71 70.83 204 46.42 204 95.25 161.71 119.66 161.71 70.83"/><polygon class="cls-3" points="162.29 22.31 204.39 46.56 162.33 70.89 120.23 46.64 162.29 22.31"/><polygon class="cls-1" points="78.29 119.58 120.57 144 120.57 95.17 78.29 70.76 78.29 119.58"/><polygon class="cls-2" points="119.43 95.17 161.71 70.76 161.71 119.58 119.43 144 119.43 95.17"/><polygon class="cls-3" points="120 46.64 162.1 70.9 120.04 95.23 77.94 70.97 120 46.64"/><polygon class="cls-4" points="78.14 119.46 119.67 144.1 162.51 119.46 183.37 131.43 141.3 156.33 120.16 192.95 78.14 119.46"/><rect class="cls-5" width="240" height="240" rx="120" ry="120"/></g></g></svg>