<svg xmlns="http://www.w3.org/2000/svg" viewBox="0 0 200 200"><defs><style>.cls-1{fill:#fff;stroke:#282b36;stroke-linejoin:bevel;stroke-width:4px;}.cls-2{fill:none;}</style></defs><title>symbol-white</title><g id="Layer_2" data-name="Layer 2"><g id="Layer_3" data-name="Layer 3"><polygon class="cls-1" points="16 172.4 58.29 196.81 58.29 147.99 16 123.57 16 172.4"/><polygon class="cls-1" points="58.29 147.99 100.57 123.57 100.57 172.4 58.29 196.81 58.29 147.99"/><polygon class="cls-1" points="58.14 99.46 100.23 123.72 58.18 148.05 16.08 123.79 58.14 99.46"/><polygon class="cls-1" points="99.43 172.4 141.71 196.81 141.71 147.99 99.43 123.57 99.43 172.4"/><polygon class="cls-1" points="141.71 147.99 184 123.57 184 172.4 141.71 196.81 141.71 147.99"/><polygon class="cls-1" points="142.51 99.46 184.61 123.72 142.55 148.05 100.45 123.79 142.51 99.46"/><polygon class="cls-1" points="16 123.83 58.29 148.25 58.29 99.42 16 75.01 16 123.83"/><polygon class="cls-1" points="58.29 99.42 100.57 75.01 100.57 123.83 58.29 148.25 58.29 99.42"/><polygon class="cls-1" points="58.14 50.89 100.23 75.15 58.18 99.48 16.08 75.22 58.14 50.89"/><polygon class="cls-1" points="16 75.27 58.29 99.68 58.29 50.85 16 26.44 16 75.27"/><polygon class="cls-1" points="58.29 50.85 100.57 26.44 100.57 75.27 58.29 99.68 58.29 50.85"/><polygon class="cls-1" points="58.14 2.33 100.23 26.59 58.18 50.91 16.08 26.66 58.14 2.33"/><polygon class="cls-1" points="99.43 75.25 141.71 99.66 141.71 50.83 99.43 26.42 99.43 75.25"/><polygon class="cls-1" points="141.71 50.83 184 26.42 184 75.25 141.71 99.66 141.71 50.83"/><polygon class="cls-1" points="142.29 2.31 184.39 26.56 142.33 50.89 100.23 26.64 142.29 2.31"/><polygon class="cls-1" points="58.29 99.58 100.57 124 100.57 75.17 58.29 50.76 58.29 99.58"/><polygon class="cls-1" points="99.43 75.17 141.71 50.76 141.71 99.58 99.43 124 99.43 75.17"/><polygon class="cls-1" points="100 26.64 142.1 50.9 100.04 75.23 57.94 50.97 100 26.64"/><rect class="cls-2" width="200" height="200"/></g></g></svg>