<svg xmlns="http://www.w3.org/2000/svg" viewBox="0 0 500 134.51"><defs><style>.cls-1{fill:#fff;}</style></defs><title>typo-light</title><g id="Layer_2" data-name="Layer 2"><g id="Layer_3" data-name="Layer 3"><path class="cls-1" d="M0,7.74H44.4a49,49,0,0,1,16.51,2.57,32.36,32.36,0,0,1,12,7.27A30.69,30.69,0,0,1,80.18,29a42.77,42.77,0,0,1,2.47,14.88,42.37,42.37,0,0,1-1.49,11.34,34.33,34.33,0,0,1-4.53,9.89,33.31,33.31,0,0,1-7.74,8.06,40.33,40.33,0,0,1-11.15,5.79q3.54,6.81,7.56,13.8t8.07,14q4,7,8.07,14T89,134.42H66.23L38.53,82.09H37.22c-1.8,0-3.68-.08-5.64-.23s-3.78-.33-5.46-.52q-3-.36-5.78-.84v53.92H0ZM20.34,65.45c.56.08,1.47.19,2.75.31a42.58,42.58,0,0,0,4.29.19h10.4q11.85,0,17.68-5.34t5.83-16.48q0-9.75-5.27-15T41,24H20.34Z"/><path class="cls-1" d="M98.79,88q0-12.87,3.26-22.16a40.77,40.77,0,0,1,9.14-15.28,35.66,35.66,0,0,1,14-8.81,55,55,0,0,1,18-2.81,43.92,43.92,0,0,1,16.18,2.8,33.25,33.25,0,0,1,19.64,20,44.7,44.7,0,0,1,2.61,15.59,48,48,0,0,1-.28,5.43c-.18,1.67-.4,3.11-.65,4.31-.25,1.44-.53,2.73-.84,3.88H118.66a48.76,48.76,0,0,0,1.77,13.67,19.52,19.52,0,0,0,5,8.57,18.18,18.18,0,0,0,8.35,4.4,49.74,49.74,0,0,0,11.94,1.25,68.19,68.19,0,0,0,10.54-.73,56.67,56.67,0,0,0,7.93-1.75,42.25,42.25,0,0,0,6.72-2.57,50.81,50.81,0,0,1,2.19,6c.53,1.85.91,3.46,1.16,4.82.25,1.61.44,3,.56,4.27a39.13,39.13,0,0,1-7.46,2.8,91.6,91.6,0,0,1-9.14,1.91,78.34,78.34,0,0,1-12.5.88,74.88,74.88,0,0,1-19.92-2.41,35.52,35.52,0,0,1-14.74-7.91,34.55,34.55,0,0,1-9.14-14.38Q98.79,100.92,98.79,88Zm62.87-10.81V74.46a24.7,24.7,0,0,0-1.45-8.81,18.54,18.54,0,0,0-4-6.44,16.58,16.58,0,0,0-6-4,20.51,20.51,0,0,0-7.46-1.34,37.18,37.18,0,0,0-10.36,1.3A18.49,18.49,0,0,0,125,59.33a17,17,0,0,0-4.52,7.23,33.15,33.15,0,0,0-1.49,10.59Z"/><path class="cls-1" d="M194.87,105.83a33.33,33.33,0,0,1,2.24-12.92,21.33,21.33,0,0,1,6.57-8.7,29.63,29.63,0,0,1,10.55-5.09,54.06,54.06,0,0,1,14.22-1.69h20.8V70.5a28.06,28.06,0,0,0-.88-7.7A10.1,10.1,0,0,0,245.43,58,11.86,11.86,0,0,0,240,55.4a40.78,40.78,0,0,0-8.44-.74,43.3,43.3,0,0,0-9.56,1,69.4,69.4,0,0,0-7.88,2.23,56.51,56.51,0,0,0-7.37,3.26,32.31,32.31,0,0,1-3.27-5.34,35.37,35.37,0,0,1-1.86-4.62,20.91,20.91,0,0,1-1.12-4.49,70.48,70.48,0,0,1,9.6-3.91,92.16,92.16,0,0,1,10.31-2.71,60.08,60.08,0,0,1,12.27-1.21,71.71,71.71,0,0,1,17.63,1.81,26.67,26.67,0,0,1,11.15,5.47,19.33,19.33,0,0,1,5.78,9.22,47,47,0,0,1,1.63,13.16V119l7.84,9.51v5.88H259.42l-7.18-8.3h-3.36c-.31.25-1.14.82-2.47,1.71a42.2,42.2,0,0,1-5.13,2.82,46.83,46.83,0,0,1-7.09,2.63,30.46,30.46,0,0,1-8.44,1.14,36.88,36.88,0,0,1-12.69-2.06,28.1,28.1,0,0,1-9.75-5.86,26,26,0,0,1-6.25-9.08A29.88,29.88,0,0,1,194.87,105.83Zm20.34-.7a19.11,19.11,0,0,0,1.21,7.32,11.3,11.3,0,0,0,3.4,4.64,12.85,12.85,0,0,0,5.32,2.39,33,33,0,0,0,7,.67,24.43,24.43,0,0,0,6.67-.89,35.2,35.2,0,0,0,5.46-2,28.59,28.59,0,0,0,5-2.89V90H230.5a18.83,18.83,0,0,0-7.32,1.24,12.81,12.81,0,0,0-4.71,3.26A11.68,11.68,0,0,0,216,99.25,22.13,22.13,0,0,0,215.21,105.13Z"/><path class="cls-1" d="M296.18,7.74h21.17V63.25h1.87L359.05,7.74h25.37L336.47,69.59,387,134.42H361.1L318.47,75.93h-1.12v58.49H296.18Z"/><path class="cls-1" d="M410.54,23.41a12.91,12.91,0,0,1-4.9-.93,13.24,13.24,0,0,1-4-2.52,12.11,12.11,0,0,1-2.75-3.68,10.1,10.1,0,0,1-1-4.53,10.57,10.57,0,0,1,1-4.66,12.09,12.09,0,0,1,2.75-3.73,12.55,12.55,0,0,1,4-2.47,13.49,13.49,0,0,1,4.9-.89,13.78,13.78,0,0,1,4.94.89,12.36,12.36,0,0,1,4.06,2.47,12.09,12.09,0,0,1,2.75,3.73,10.57,10.57,0,0,1,1,4.66,10.1,10.1,0,0,1-1,4.53A12.11,12.11,0,0,1,419.54,20a13,13,0,0,1-4.06,2.52A13.19,13.19,0,0,1,410.54,23.41ZM399.81,39h19.41v79.85l5.5,3.92v11.66h-5.5q-9.24,0-14.32-3.73t-5.09-12.33Z"/><path class="cls-1" d="M452.24,53.45H440c-.06-.68-.13-1.43-.19-2.24s-.11-1.49-.14-2.42,0-2,0-3.08,0-2.16.09-3.13.15-2.16.28-3.59h12.22V21.84L463,7.74h8.3V39h26.4c.12.62.23,1.37.32,2.24a22,22,0,0,1,.14,2.52,17,17,0,0,1-.42,3.92,29.88,29.88,0,0,1-.88,3.08,15.38,15.38,0,0,1-1.31,2.7H471.27V106.2q0,6.64,2.28,9.64t7.33,3a22.13,22.13,0,0,0,4.52-.49,39.19,39.19,0,0,0,4.52-1.22q2.43-.82,4.95-1.81a24.87,24.87,0,0,1,2.94,4.72,24.13,24.13,0,0,1,1.54,4.16,19.61,19.61,0,0,1,.65,4,34,34,0,0,1-5.88,3.17,47.4,47.4,0,0,1-6.9,2.2,39.27,39.27,0,0,1-9.23,1,35.89,35.89,0,0,1-12.18-1.78,18.54,18.54,0,0,1-7.93-5.3,20.91,20.91,0,0,1-4.34-8.77,50.5,50.5,0,0,1-1.3-12.11Z"/></g></g></svg>