<svg xmlns="http://www.w3.org/2000/svg" viewBox="0 0 576.23 150"><defs><style>.cls-1{fill:#fff;}</style></defs><title>typo-light</title><g id="Layer_2" data-name="Layer 2"><g id="Layer_3" data-name="Layer 3"><path class="cls-1" d="M0,5.33C10,3.5,24.67,2.22,40,2.22c20.67,0,34.79,3.49,44.5,11.63,7.94,6.61,12.44,16.61,12.44,29,0,18.59-12.64,31.26-26.25,36.05v.62c10.45,4,16.54,13.9,20.12,27.92,4.59,18.06,8.52,34.61,11.4,40.22H75.12c-2.24-4.17-5.69-16.09-9.72-34-4.14-18.81-11-24.91-26-25.26H26.16v59.3H0ZM26.16,69h15.6c17.88,0,28.89-9.42,28.89-23.76,0-15.7-11.06-23.08-28.11-23.14-8.36,0-13.69.65-16.38,1.34Z"/><path class="cls-1" d="M140,102.82c.71,18.89,15.32,27.15,32.19,27.15,12.13,0,20.8-1.9,28.77-4.83l3.9,18.14c-8.93,3.78-21.3,6.61-36.43,6.61-33.84,0-53.66-20.9-53.66-52.84,0-28.77,17.45-56,51-56,33.88,0,44.91,27.86,44.91,50.69a55.36,55.36,0,0,1-.93,11.07Zm45.84-18.37c.12-9.65-4.08-25.4-21.74-25.4-16.22,0-23,14.74-24.14,25.4Z"/><path class="cls-1" d="M290.52,147.64,288.72,136h-.64c-6.32,8.23-17.22,14-30.71,14-21.15,0-32.86-15.11-32.86-31,0-26.3,23.43-39.62,61.82-39.46V77.81c0-6.85-2.71-18.24-21.16-18.17-10.21,0-20.92,3.29-28,7.78l-5.22-17.11c7.88-4.78,21.37-9.25,37.78-9.25,33.43,0,43,21.08,43,44v37.53c0,9.47.48,18.67,1.62,25.1ZM287,96.6c-18.6-.25-36.38,3.67-36.38,19.54,0,10.21,6.69,15,15,15a21.43,21.43,0,0,0,20.62-14.43A19.79,19.79,0,0,0,287,111Z"/><path class="cls-1" d="M341.47,3.34h26.16V69.73h.59c3.45-5.52,7.14-10.66,10.58-15.55L416.6,3.34H449L399.3,64.72l53,82.92H421.46L380.59,81.58,367.63,97v50.64H341.47Z"/><path class="cls-1" d="M494.13,14.25c0,7.87-5.69,14.21-15,14.21-8.74,0-14.47-6.34-14.44-14.21,0-8,5.9-14.25,14.75-14.25S494,6.15,494.13,14.25ZM466.21,147.64V43.42h26.38V147.64Z"/><path class="cls-1" d="M551.16,13.57V43.42h25.07V63.05H551.16v46c0,12.75,3.4,19.23,13.48,19.23a40,40,0,0,0,10.23-1.14l.54,20c-4,1.48-10.87,2.7-19.18,2.7-9.69,0-17.76-3.3-22.65-8.59-5.67-6-8.25-15.57-8.25-29.23v-49H510.46V43.42h14.87V19.81Z"/></g></g></svg>