<svg width="40" height="40" viewBox="0 0 40 40" fill="#28a9ff" xmlns="http://www.w3.org/2000/svg">
<circle cx="25" cy="20" r="5"/>
<path fill-rule="evenodd" clip-rule="evenodd" d="M8 0C3.58172 0 0 3.58172 0 8V32C0 36.4183 3.58172 40 8 40H32C36.4183 40 40 36.4183 40 32V8C40 3.58172 36.4183 0 32 0H8ZM19.9998 31.9997C26.6272 31.9997 31.9998 26.6271 31.9998 19.9997C31.9998 13.3723 26.6272 7.99967 19.9998 7.99967C13.3723 7.99967 7.99976 13.3723 7.99976 19.9997C7.99976 26.6271 13.3723 31.9997 19.9998 31.9997Z"/>
</svg>
